<svg width="688" height="484" viewBox="0 0 688 484" fill="none" xmlns="http://www.w3.org/2000/svg">
<path d="M92.9688 99.1875C101.562 99.7083 108.594 100.099 114.062 100.359C119.792 100.62 124.349 100.75 127.734 100.75C131.641 101.01 134.635 101.01 136.719 100.75H146.875C150.781 100.75 156.25 100.88 163.281 101.141C170.573 101.141 180.078 101.271 191.797 101.531C190.495 103.354 189.453 105.568 188.672 108.172C187.891 110.776 187.24 113.38 186.719 115.984C185.938 118.849 185.417 121.974 185.156 125.359C184.896 129.526 184.375 136.036 183.594 144.891C183.073 152.443 182.292 162.99 181.25 176.531C180.469 189.812 179.427 207.13 178.125 228.484C185.677 228.484 192.188 227.833 197.656 226.531C203.125 224.969 207.682 223.146 211.328 221.062C215.495 218.979 218.88 216.505 221.484 213.641C222.786 212.078 224.219 210.385 225.781 208.562C227.083 207 228.776 205.307 230.859 203.484C232.943 201.661 235.156 199.708 237.5 197.625C236.979 204.656 236.589 210.776 236.328 215.984C236.068 220.932 235.807 225.099 235.547 228.484C235.286 232.391 235.026 235.516 234.766 237.859C234.766 240.724 234.505 244.5 233.984 249.188C233.464 253.354 232.943 258.953 232.422 265.984C231.901 272.755 231.38 281.349 230.859 291.766C228.255 286.557 225.781 282.521 223.438 279.656C221.354 276.531 219.531 274.188 217.969 272.625C215.885 270.802 214.062 269.5 212.5 268.719C210.677 268.198 208.203 267.677 205.078 267.156C202.214 266.635 198.568 266.375 194.141 266.375C189.974 266.115 184.505 265.854 177.734 265.594C177.734 280.958 177.995 293.328 178.516 302.703C179.297 312.078 180.078 319.37 180.859 324.578C181.901 330.828 183.073 335.255 184.375 337.859C185.938 340.203 188.151 342.938 191.016 346.062C193.62 348.927 197.135 352.312 201.562 356.219C205.99 360.125 211.719 364.552 218.75 369.5C212.76 370.802 207.031 371.714 201.562 372.234C196.354 372.495 191.536 372.885 187.109 373.406C182.161 373.927 177.474 374.188 173.047 374.188C168.359 374.188 162.63 374.448 155.859 374.969C149.87 375.49 142.448 376.01 133.594 376.531C124.74 377.052 114.062 377.703 101.562 378.484C105.99 374.057 109.505 370.021 112.109 366.375C114.974 362.469 117.188 359.083 118.75 356.219C120.573 353.094 121.875 350.359 122.656 348.016C123.177 345.151 123.958 340.333 125 333.562C125.781 327.833 126.693 319.891 127.734 309.734C128.776 299.578 129.948 286.167 131.25 269.5L25 270.672L26.9531 244.5C39.7135 226.271 49.8698 211.167 57.4219 199.188C65.2344 186.948 71.224 177.052 75.3906 169.5C80.0781 160.906 83.4635 154.135 85.5469 149.188C86.849 144.5 88.0208 139.552 89.0625 134.344C90.1042 129.917 91.0156 124.708 91.7969 118.719C92.5781 112.469 92.9688 105.958 92.9688 99.1875ZM135.938 232.391C136.458 225.359 136.849 218.979 137.109 213.25C137.63 207.26 138.021 202.052 138.281 197.625C138.542 192.677 138.672 187.99 138.672 183.562V169.109C138.672 164.422 138.672 158.953 138.672 152.703C138.932 146.193 139.193 138.901 139.453 130.828L82.0312 233.172L135.938 232.391ZM358.594 96.0625C370.573 95.8021 382.682 98.5365 394.922 104.266C407.161 109.995 418.229 118.719 428.125 130.438C438.021 141.896 446.094 156.349 452.344 173.797C458.594 191.245 461.849 211.688 462.109 235.125C462.37 250.75 461.198 264.943 458.594 277.703C455.99 290.464 452.474 301.922 448.047 312.078C443.62 321.974 438.542 330.828 432.812 338.641C427.344 346.193 421.745 352.703 416.016 358.172C410.286 363.38 404.818 367.547 399.609 370.672C394.401 373.797 389.974 375.88 386.328 376.922C381.641 378.484 376.042 379.917 369.531 381.219C363.021 382.26 356.25 382.911 349.219 383.172C342.188 383.693 335.156 383.302 328.125 382C321.354 380.958 315.365 378.875 310.156 375.75C304.948 372.625 298.828 368.198 291.797 362.469C285.026 356.479 278.516 348.406 272.266 338.25C266.016 327.833 260.677 314.812 256.25 299.188C251.823 283.562 249.609 264.422 249.609 241.766C249.609 219.109 252.214 198.797 257.422 180.828C262.891 162.859 270.312 147.625 279.688 135.125C289.323 122.625 300.781 113.12 314.062 106.609C327.604 99.8385 342.448 96.3229 358.594 96.0625ZM303.516 241.375C303.255 256.74 304.167 270.151 306.25 281.609C308.333 293.068 310.807 302.703 313.672 310.516C316.536 318.328 319.401 324.578 322.266 329.266C325.391 333.693 327.734 336.818 329.297 338.641C330.859 340.984 333.724 342.547 337.891 343.328C342.057 344.109 346.484 344.5 351.172 344.5C355.859 344.24 360.417 343.589 364.844 342.547C369.271 341.245 372.656 339.552 375 337.469C376.302 336.167 378.125 332.911 380.469 327.703C383.073 322.495 385.547 315.724 387.891 307.391C390.495 299.057 392.839 289.422 394.922 278.484C397.005 267.286 398.438 255.307 399.219 242.547C400 228.224 400 215.073 399.219 203.094C398.438 190.854 397.266 180.177 395.703 171.062C394.141 161.948 392.318 154.396 390.234 148.406C388.151 142.417 385.938 138.38 383.594 136.297C380.208 133.172 376.042 130.958 371.094 129.656C366.406 128.354 361.589 127.833 356.641 128.094C351.953 128.354 347.396 129.266 342.969 130.828C338.802 132.391 335.547 134.474 333.203 137.078C328.516 142.286 324.349 147.755 320.703 153.484C317.057 159.214 314.062 166.115 311.719 174.188C309.375 182.26 307.422 191.766 305.859 202.703C304.557 213.38 303.776 226.271 303.516 241.375ZM538.281 99.1875C546.875 99.7083 553.906 100.099 559.375 100.359C565.104 100.62 569.661 100.75 573.047 100.75C576.953 101.01 579.948 101.01 582.031 100.75H592.188C596.094 100.75 601.562 100.88 608.594 101.141C615.885 101.141 625.391 101.271 637.109 101.531C635.807 103.354 634.766 105.568 633.984 108.172C633.203 110.776 632.552 113.38 632.031 115.984C631.25 118.849 630.729 121.974 630.469 125.359C630.208 129.526 629.688 136.036 628.906 144.891C628.385 152.443 627.604 162.99 626.562 176.531C625.781 189.812 624.74 207.13 623.438 228.484C630.99 228.484 637.5 227.833 642.969 226.531C648.438 224.969 652.995 223.146 656.641 221.062C660.807 218.979 664.193 216.505 666.797 213.641C668.099 212.078 669.531 210.385 671.094 208.562C672.396 207 674.089 205.307 676.172 203.484C678.255 201.661 680.469 199.708 682.812 197.625C682.292 204.656 681.901 210.776 681.641 215.984C681.38 220.932 681.12 225.099 680.859 228.484C680.599 232.391 680.339 235.516 680.078 237.859C680.078 240.724 679.818 244.5 679.297 249.188C678.776 253.354 678.255 258.953 677.734 265.984C677.214 272.755 676.693 281.349 676.172 291.766C673.568 286.557 671.094 282.521 668.75 279.656C666.667 276.531 664.844 274.188 663.281 272.625C661.198 270.802 659.375 269.5 657.812 268.719C655.99 268.198 653.516 267.677 650.391 267.156C647.526 266.635 643.88 266.375 639.453 266.375C635.286 266.115 629.818 265.854 623.047 265.594C623.047 280.958 623.307 293.328 623.828 302.703C624.609 312.078 625.391 319.37 626.172 324.578C627.214 330.828 628.385 335.255 629.688 337.859C631.25 340.203 633.464 342.938 636.328 346.062C638.932 348.927 642.448 352.312 646.875 356.219C651.302 360.125 657.031 364.552 664.062 369.5C658.073 370.802 652.344 371.714 646.875 372.234C641.667 372.495 636.849 372.885 632.422 373.406C627.474 373.927 622.786 374.188 618.359 374.188C613.672 374.188 607.943 374.448 601.172 374.969C595.182 375.49 587.76 376.01 578.906 376.531C570.052 377.052 559.375 377.703 546.875 378.484C551.302 374.057 554.818 370.021 557.422 366.375C560.286 362.469 562.5 359.083 564.062 356.219C565.885 353.094 567.188 350.359 567.969 348.016C568.49 345.151 569.271 340.333 570.312 333.562C571.094 327.833 572.005 319.891 573.047 309.734C574.089 299.578 575.26 286.167 576.562 269.5L470.312 270.672L472.266 244.5C485.026 226.271 495.182 211.167 502.734 199.188C510.547 186.948 516.536 177.052 520.703 169.5C525.391 160.906 528.776 154.135 530.859 149.188C532.161 144.5 533.333 139.552 534.375 134.344C535.417 129.917 536.328 124.708 537.109 118.719C537.891 112.469 538.281 105.958 538.281 99.1875ZM581.25 232.391C581.771 225.359 582.161 218.979 582.422 213.25C582.943 207.26 583.333 202.052 583.594 197.625C583.854 192.677 583.984 187.99 583.984 183.562V169.109C583.984 164.422 583.984 158.953 583.984 152.703C584.245 146.193 584.505 138.901 584.766 130.828L527.344 233.172L581.25 232.391Z" fill="#25A942"/>
<rect y="200.56" width="686" height="58.88" fill="#FFFEFE"/>
<path d="M164.688 210.688C166.562 211.021 168.104 211.25 169.312 211.375C170.521 211.5 171.5 211.604 172.25 211.688C173.125 211.771 173.812 211.792 174.312 211.75H176.188C176.854 211.75 177.688 211.75 178.688 211.75C179.729 211.708 181.021 211.688 182.562 211.688C183.438 213.729 184.229 215.604 184.938 217.312C185.688 219.021 186.312 220.479 186.812 221.688C187.396 223.146 187.938 224.458 188.438 225.625C189.021 227.083 189.646 228.688 190.312 230.438C190.979 232.188 191.583 233.833 192.125 235.375C192.708 236.917 193.188 238.188 193.562 239.188C193.938 240.188 194.125 240.646 194.125 240.562C194.125 240.521 194.146 240.104 194.188 239.312C194.229 238.479 194.271 237.458 194.312 236.25C194.354 235 194.396 233.646 194.438 232.188C194.521 230.688 194.562 229.25 194.562 227.875C194.604 226.458 194.625 225.167 194.625 224C194.625 222.833 194.583 221.958 194.5 221.375C194.375 220.667 194.125 219.854 193.75 218.938C193.417 218.146 192.958 217.208 192.375 216.125C191.792 215 190.979 213.729 189.938 212.312C191.646 212.354 193.042 212.375 194.125 212.375C195.208 212.375 196.083 212.375 196.75 212.375C197.5 212.375 198.083 212.354 198.5 212.312C199.042 212.312 199.708 212.271 200.5 212.188C201.208 212.104 202.083 212.042 203.125 212C204.208 211.917 205.542 211.812 207.125 211.688C206.208 212.521 205.479 213.312 204.938 214.062C204.396 214.812 203.958 215.479 203.625 216.062C203.25 216.729 203 217.354 202.875 217.938C202.708 218.688 202.562 219.917 202.438 221.625C202.354 223.292 202.25 225.167 202.125 227.25C202.042 229.333 201.958 231.5 201.875 233.75C201.792 236 201.708 238.062 201.625 239.938C201.625 241.354 201.583 242.875 201.5 244.5C201.417 245.875 201.333 247.438 201.25 249.188C201.167 250.896 201.062 252.625 200.938 254.375L195.375 254.5C193.75 251.625 192.375 249.167 191.25 247.125C190.167 245.042 189.271 243.333 188.562 242C187.771 240.458 187.104 239.167 186.562 238.125C186.104 237.125 185.5 235.979 184.75 234.688C184.125 233.604 183.333 232.271 182.375 230.688C181.458 229.104 180.354 227.292 179.062 225.25C178.938 228.125 178.875 230.583 178.875 232.625C178.917 234.625 178.979 236.292 179.062 237.625C179.188 239.167 179.333 240.458 179.5 241.5C179.708 242.5 180 243.625 180.375 244.875C180.708 245.958 181.104 247.229 181.562 248.688C182.062 250.146 182.667 251.792 183.375 253.625C180.917 253.5 179.083 253.438 177.875 253.438H176C175.417 253.438 174.625 253.5 173.625 253.625C172.792 253.708 171.646 253.833 170.188 254C168.771 254.167 167 254.396 164.875 254.688C165.875 253.479 166.667 252.375 167.25 251.375C167.875 250.333 168.354 249.458 168.688 248.75C169.104 247.917 169.396 247.188 169.562 246.562C169.688 245.896 169.771 244.75 169.812 243.125C169.854 241.458 169.854 239.583 169.812 237.5C169.812 235.375 169.771 233.146 169.688 230.812C169.646 228.479 169.583 226.312 169.5 224.312C169.417 222.312 169.312 220.604 169.188 219.188C169.104 217.771 169.042 216.896 169 216.562C168.875 216.021 168.625 215.438 168.25 214.812C167.917 214.271 167.479 213.667 166.938 213C166.396 212.292 165.646 211.521 164.688 210.688ZM229.625 207.875C231.875 207.958 234.146 208.375 236.438 209.125C238.771 209.833 240.917 211 242.875 212.625C244.833 214.208 246.5 216.271 247.875 218.812C249.25 221.312 250.104 224.375 250.438 228C250.729 230.958 250.354 233.896 249.312 236.812C248.312 239.688 246.917 242.333 245.125 244.75C243.333 247.167 241.271 249.229 238.938 250.938C236.604 252.604 234.271 253.708 231.938 254.25C230.521 254.583 228.958 254.625 227.25 254.375C225.583 254.083 223.875 253.562 222.125 252.812C220.417 252.021 218.729 251.021 217.062 249.812C215.438 248.604 213.958 247.229 212.625 245.688C211.292 244.104 210.167 242.396 209.25 240.562C208.375 238.729 207.833 236.812 207.625 234.812C207.417 233.146 207.396 231.312 207.562 229.312C207.771 227.271 208.167 225.25 208.75 223.25C209.375 221.208 210.229 219.25 211.312 217.375C212.438 215.458 213.854 213.792 215.562 212.375C217.271 210.917 219.271 209.792 221.562 209C223.896 208.167 226.583 207.792 229.625 207.875ZM218.438 233.188C217.854 237.646 218.271 241.229 219.688 243.938C221.146 246.646 223.333 248.292 226.25 248.875C227.667 249.167 229.021 248.875 230.312 248C231.646 247.083 232.854 245.771 233.938 244.062C235.021 242.354 235.958 240.354 236.75 238.062C237.542 235.771 238.125 233.375 238.5 230.875C238.875 228.375 238.896 226.125 238.562 224.125C238.271 222.083 237.75 220.354 237 218.938C236.25 217.479 235.333 216.354 234.25 215.562C233.208 214.771 232.125 214.333 231 214.25C229.042 214.125 227.333 214.646 225.875 215.812C224.417 216.938 223.188 218.417 222.188 220.25C221.188 222.083 220.375 224.146 219.75 226.438C219.167 228.729 218.729 230.979 218.438 233.188ZM250.562 209.375C253.354 209.708 255.771 209.958 257.812 210.125C259.854 210.25 261.542 210.354 262.875 210.438C264.417 210.521 265.708 210.542 266.75 210.5C267.833 210.458 269.312 210.354 271.188 210.188C272.771 210.062 274.854 209.896 277.438 209.688C280.021 209.438 283.25 209.104 287.125 208.688C287.167 209.646 287.188 210.583 287.188 211.5C287.229 212.375 287.271 213.146 287.312 213.812C287.354 214.604 287.375 215.333 287.375 216C287.375 216.708 287.333 217.604 287.25 218.688C287.167 219.604 287.021 220.771 286.812 222.188C286.646 223.562 286.375 225.208 286 227.125C285.417 224.875 284.854 223.062 284.312 221.688C283.771 220.271 283.271 219.146 282.812 218.312C282.312 217.354 281.812 216.625 281.312 216.125C280.771 215.75 280.125 215.438 279.375 215.188C278.708 214.979 277.854 214.812 276.812 214.688C275.812 214.562 274.625 214.583 273.25 214.75C273.042 220.25 272.896 224.708 272.812 228.125C272.729 231.542 272.667 234.208 272.625 236.125C272.583 238.417 272.562 240.062 272.562 241.062C272.604 242.479 272.833 243.875 273.25 245.25C273.583 246.417 274.125 247.625 274.875 248.875C275.625 250.125 276.708 251.229 278.125 252.188H270.5C269.792 252.188 268.917 252.229 267.875 252.312C267 252.396 265.875 252.479 264.5 252.562C263.167 252.646 261.604 252.792 259.812 253C260.438 251.917 260.938 250.938 261.312 250.062C261.688 249.188 261.979 248.438 262.188 247.812C262.438 247.062 262.625 246.396 262.75 245.812C262.792 244.979 262.896 243.292 263.062 240.75C263.104 239.708 263.146 238.417 263.188 236.875C263.271 235.333 263.354 233.5 263.438 231.375C263.562 229.25 263.667 226.812 263.75 224.062C263.875 221.271 264 218.125 264.125 214.625C263.375 214.417 262.667 214.438 262 214.688C261.333 214.896 260.75 215.167 260.25 215.5C259.667 215.917 259.104 216.417 258.562 217C258.021 217.708 257.417 218.625 256.75 219.75C256.167 220.708 255.5 221.979 254.75 223.562C254 225.104 253.146 227.021 252.188 229.312C251.979 226.896 251.833 224.917 251.75 223.375C251.667 221.792 251.604 220.562 251.562 219.688C251.521 218.646 251.5 217.875 251.5 217.375C251.5 216.917 251.458 216.312 251.375 215.562C251.292 214.938 251.188 214.125 251.062 213.125C250.938 212.083 250.771 210.833 250.562 209.375ZM307.25 211.875C309.75 212.083 311.938 212.208 313.812 212.25C315.729 212.292 317.354 212.312 318.688 212.312C320.229 212.312 321.562 212.271 322.688 212.188C323.854 212.062 325.375 211.896 327.25 211.688C328.833 211.479 330.875 211.208 333.375 210.875C335.875 210.5 338.917 210.021 342.5 209.438C342.042 210.146 341.646 210.896 341.312 211.688C341.021 212.438 340.771 213.125 340.562 213.75C340.354 214.5 340.167 215.229 340 215.938C339.875 216.729 339.729 217.708 339.562 218.875C339.396 219.875 339.188 221.146 338.938 222.688C338.729 224.188 338.458 225.979 338.125 228.062C336.875 224.812 335.604 222.312 334.312 220.562C333.062 218.812 331.896 217.521 330.812 216.688C329.562 215.729 328.375 215.188 327.25 215.062C325.625 215.062 324.292 215.375 323.25 216C322.208 216.625 321.354 217.438 320.688 218.438C320.062 219.396 319.583 220.458 319.25 221.625C318.917 222.75 318.688 223.854 318.562 224.938C318.438 225.979 318.354 226.917 318.312 227.75C318.271 228.542 318.229 229.083 318.188 229.375C319.646 229.292 320.875 229.188 321.875 229.062C322.875 228.938 323.667 228.812 324.25 228.688C324.958 228.521 325.521 228.354 325.938 228.188C326.562 227.854 327.188 227.458 327.812 227C328.354 226.583 328.917 226.083 329.5 225.5C330.125 224.917 330.667 224.208 331.125 223.375C330.875 224.875 330.646 226.125 330.438 227.125C330.271 228.125 330.125 228.917 330 229.5C329.833 230.208 329.729 230.75 329.688 231.125C329.604 231.5 329.5 232.021 329.375 232.688C329.25 233.271 329.104 234.021 328.938 234.938C328.771 235.854 328.583 237 328.375 238.375C327.875 237.5 327.354 236.792 326.812 236.25C326.271 235.667 325.771 235.208 325.312 234.875C324.771 234.5 324.25 234.208 323.75 234C323.208 233.833 322.625 233.667 322 233.5C321.458 233.375 320.812 233.25 320.062 233.125C319.354 232.958 318.583 232.812 317.75 232.688C317.833 234.938 317.958 236.875 318.125 238.5C318.292 240.083 318.438 241.417 318.562 242.5C318.729 243.75 318.896 244.792 319.062 245.625C319.271 246.458 319.604 247.354 320.062 248.312C320.438 249.146 320.958 250.104 321.625 251.188C322.333 252.229 323.229 253.354 324.312 254.562C323.479 254.354 322.604 254.208 321.688 254.125C320.771 254.042 319.958 253.979 319.25 253.938C318.375 253.896 317.542 253.896 316.75 253.938C315.917 253.979 315 254.062 314 254.188C313.167 254.271 312.208 254.396 311.125 254.562C310.042 254.729 308.896 254.917 307.688 255.125C308.396 254.417 308.979 253.708 309.438 253C309.896 252.292 310.229 251.667 310.438 251.125C310.688 250.5 310.854 249.896 310.938 249.312C310.979 248.812 311 247.729 311 246.062C311 244.354 310.979 242.375 310.938 240.125C310.896 237.833 310.833 235.417 310.75 232.875C310.667 230.333 310.583 227.958 310.5 225.75C310.417 223.5 310.312 221.583 310.188 220C310.104 218.417 310 217.458 309.875 217.125C309.708 216.708 309.521 216.229 309.312 215.688C308.979 214.812 308.292 213.542 307.25 211.875ZM362.438 207.875C364.688 207.958 366.958 208.375 369.25 209.125C371.583 209.833 373.729 211 375.688 212.625C377.646 214.208 379.312 216.271 380.688 218.812C382.062 221.312 382.917 224.375 383.25 228C383.542 230.958 383.167 233.896 382.125 236.812C381.125 239.688 379.729 242.333 377.938 244.75C376.146 247.167 374.083 249.229 371.75 250.938C369.417 252.604 367.083 253.708 364.75 254.25C363.333 254.583 361.771 254.625 360.062 254.375C358.396 254.083 356.688 253.562 354.938 252.812C353.229 252.021 351.542 251.021 349.875 249.812C348.25 248.604 346.771 247.229 345.438 245.688C344.104 244.104 342.979 242.396 342.062 240.562C341.188 238.729 340.646 236.812 340.438 234.812C340.229 233.146 340.208 231.312 340.375 229.312C340.583 227.271 340.979 225.25 341.562 223.25C342.188 221.208 343.042 219.25 344.125 217.375C345.25 215.458 346.667 213.792 348.375 212.375C350.083 210.917 352.083 209.792 354.375 209C356.708 208.167 359.396 207.792 362.438 207.875ZM351.25 233.188C350.667 237.646 351.083 241.229 352.5 243.938C353.958 246.646 356.146 248.292 359.062 248.875C360.479 249.167 361.833 248.875 363.125 248C364.458 247.083 365.667 245.771 366.75 244.062C367.833 242.354 368.771 240.354 369.562 238.062C370.354 235.771 370.938 233.375 371.312 230.875C371.688 228.375 371.708 226.125 371.375 224.125C371.083 222.083 370.562 220.354 369.812 218.938C369.062 217.479 368.146 216.354 367.062 215.562C366.021 214.771 364.938 214.333 363.812 214.25C361.854 214.125 360.146 214.646 358.688 215.812C357.229 216.938 356 218.417 355 220.25C354 222.083 353.188 224.146 352.562 226.438C351.979 228.729 351.542 230.979 351.25 233.188ZM384.625 211.062C385.875 211.312 386.938 211.5 387.812 211.625C388.688 211.75 389.417 211.854 390 211.938C390.667 212.021 391.229 212.062 391.688 212.062C392.146 212.062 392.771 212.042 393.562 212C394.271 211.958 395.167 211.938 396.25 211.938C397.333 211.896 398.708 211.833 400.375 211.75C399.417 212.417 398.646 212.979 398.062 213.438C397.479 213.896 397.042 214.292 396.75 214.625C396.375 215 396.146 215.312 396.062 215.562C395.979 215.729 395.896 216.354 395.812 217.438C395.729 218.479 395.646 219.812 395.562 221.438C395.521 223.021 395.521 224.812 395.562 226.812C395.604 228.771 395.708 230.771 395.875 232.812C396.083 234.854 396.375 236.833 396.75 238.75C397.125 240.625 397.625 242.271 398.25 243.688C398.917 245.104 399.708 246.208 400.625 247C401.583 247.792 402.729 248.083 404.062 247.875C405.812 247.625 407.229 246.771 408.312 245.312C409.396 243.854 410.208 242.083 410.75 240C411.333 237.917 411.688 235.688 411.812 233.312C411.979 230.896 412 228.646 411.875 226.562C411.792 224.438 411.625 222.604 411.375 221.062C411.125 219.521 410.896 218.562 410.688 218.188C410.438 217.771 410.104 217.292 409.688 216.75C409.354 216.292 408.917 215.771 408.375 215.188C407.833 214.562 407.208 213.896 406.5 213.188C407.792 213.229 408.958 213.271 410 213.312C411.042 213.312 411.917 213.333 412.625 213.375C413.458 213.417 414.208 213.458 414.875 213.5C415.542 213.542 416.375 213.604 417.375 213.688C418.208 213.771 419.271 213.854 420.562 213.938C421.896 214.021 423.479 214.146 425.312 214.312C424.604 214.479 424.021 214.708 423.562 215C423.146 215.292 422.812 215.604 422.562 215.938C422.271 216.312 422.062 216.688 421.938 217.062C421.812 217.396 421.708 218.396 421.625 220.062C421.583 221.688 421.5 223.667 421.375 226C421.292 228.292 421.146 230.792 420.938 233.5C420.729 236.167 420.396 238.708 419.938 241.125C419.521 243.542 418.958 245.688 418.25 247.562C417.583 249.438 416.708 250.729 415.625 251.438C414.042 252.479 412.375 253.229 410.625 253.688C408.875 254.104 407.104 254.333 405.312 254.375C403.521 254.375 401.75 254.229 400 253.938C398.292 253.604 396.646 253.208 395.062 252.75C393.438 252.25 392.083 251.125 391 249.375C389.958 247.625 389.125 245.562 388.5 243.188C387.917 240.771 387.479 238.188 387.188 235.438C386.938 232.646 386.771 229.958 386.688 227.375C386.646 224.792 386.646 222.458 386.688 220.375C386.771 218.25 386.833 216.646 386.875 215.562C386.875 215.021 386.792 214.5 386.625 214C386.5 213.542 386.271 213.062 385.938 212.562C385.646 212.021 385.208 211.521 384.625 211.062ZM424 210.688C425.875 211.021 427.417 211.25 428.625 211.375C429.833 211.5 430.812 211.604 431.562 211.688C432.438 211.771 433.125 211.792 433.625 211.75H435.5C436.167 211.75 437 211.75 438 211.75C439.042 211.708 440.333 211.688 441.875 211.688C442.75 213.729 443.542 215.604 444.25 217.312C445 219.021 445.625 220.479 446.125 221.688C446.708 223.146 447.25 224.458 447.75 225.625C448.333 227.083 448.958 228.688 449.625 230.438C450.292 232.188 450.896 233.833 451.438 235.375C452.021 236.917 452.5 238.188 452.875 239.188C453.25 240.188 453.438 240.646 453.438 240.562C453.438 240.521 453.458 240.104 453.5 239.312C453.542 238.479 453.583 237.458 453.625 236.25C453.667 235 453.708 233.646 453.75 232.188C453.833 230.688 453.875 229.25 453.875 227.875C453.917 226.458 453.938 225.167 453.938 224C453.938 222.833 453.896 221.958 453.812 221.375C453.688 220.667 453.438 219.854 453.062 218.938C452.729 218.146 452.271 217.208 451.688 216.125C451.104 215 450.292 213.729 449.25 212.312C450.958 212.354 452.354 212.375 453.438 212.375C454.521 212.375 455.396 212.375 456.062 212.375C456.812 212.375 457.396 212.354 457.812 212.312C458.354 212.312 459.021 212.271 459.812 212.188C460.521 212.104 461.396 212.042 462.438 212C463.521 211.917 464.854 211.812 466.438 211.688C465.521 212.521 464.792 213.312 464.25 214.062C463.708 214.812 463.271 215.479 462.938 216.062C462.562 216.729 462.312 217.354 462.188 217.938C462.021 218.688 461.875 219.917 461.75 221.625C461.667 223.292 461.562 225.167 461.438 227.25C461.354 229.333 461.271 231.5 461.188 233.75C461.104 236 461.021 238.062 460.938 239.938C460.938 241.354 460.896 242.875 460.812 244.5C460.729 245.875 460.646 247.438 460.562 249.188C460.479 250.896 460.375 252.625 460.25 254.375L454.688 254.5C453.062 251.625 451.688 249.167 450.562 247.125C449.479 245.042 448.583 243.333 447.875 242C447.083 240.458 446.417 239.167 445.875 238.125C445.417 237.125 444.812 235.979 444.062 234.688C443.438 233.604 442.646 232.271 441.688 230.688C440.771 229.104 439.667 227.292 438.375 225.25C438.25 228.125 438.188 230.583 438.188 232.625C438.229 234.625 438.292 236.292 438.375 237.625C438.5 239.167 438.646 240.458 438.812 241.5C439.021 242.5 439.312 243.625 439.688 244.875C440.021 245.958 440.417 247.229 440.875 248.688C441.375 250.146 441.979 251.792 442.688 253.625C440.229 253.5 438.396 253.438 437.188 253.438H435.312C434.729 253.438 433.938 253.5 432.938 253.625C432.104 253.708 430.958 253.833 429.5 254C428.083 254.167 426.312 254.396 424.188 254.688C425.188 253.479 425.979 252.375 426.562 251.375C427.188 250.333 427.667 249.458 428 248.75C428.417 247.917 428.708 247.188 428.875 246.562C429 245.896 429.083 244.75 429.125 243.125C429.167 241.458 429.167 239.583 429.125 237.5C429.125 235.375 429.083 233.146 429 230.812C428.958 228.479 428.896 226.312 428.812 224.312C428.729 222.312 428.625 220.604 428.5 219.188C428.417 217.771 428.354 216.896 428.312 216.562C428.188 216.021 427.938 215.438 427.562 214.812C427.229 214.271 426.792 213.667 426.25 213C425.708 212.292 424.958 211.521 424 210.688ZM464.188 210.438C465.646 210.646 466.917 210.812 468 210.938C469.083 211.062 469.979 211.167 470.688 211.25C471.521 211.333 472.229 211.396 472.812 211.438C473.479 211.521 474.292 211.479 475.25 211.312C476.25 211.146 477.312 210.979 478.438 210.812C479.562 210.604 480.729 210.438 481.938 210.312C483.146 210.188 484.312 210.188 485.438 210.312C486.188 210.396 487.146 210.562 488.312 210.812C489.479 211.062 490.708 211.458 492 212C493.333 212.542 494.667 213.25 496 214.125C497.333 215 498.542 216.104 499.625 217.438C500.708 218.771 501.604 220.354 502.312 222.188C503.021 224.021 503.417 226.167 503.5 228.625C503.625 232.292 503.292 235.625 502.5 238.625C501.708 241.625 500.479 244.188 498.812 246.312C497.188 248.438 495.125 250.104 492.625 251.312C490.125 252.521 487.208 253.188 483.875 253.312C481.333 253.521 478.833 253.708 476.375 253.875C475.333 253.958 474.229 254.021 473.062 254.062C471.938 254.104 470.812 254.146 469.688 254.188C468.562 254.188 467.479 254.167 466.438 254.125C465.396 254.083 464.438 254.021 463.562 253.938C464.521 253.479 465.292 253.021 465.875 252.562C466.5 252.104 466.979 251.708 467.312 251.375C467.688 250.958 467.958 250.583 468.125 250.25C468.208 249.792 468.333 248.896 468.5 247.562C468.625 246.438 468.792 244.833 469 242.75C469.208 240.667 469.458 237.833 469.75 234.25L470.125 229.812C470.333 227.062 470.417 224.812 470.375 223.062C470.375 221.312 470.333 219.938 470.25 218.938C470.125 217.771 469.958 216.917 469.75 216.375C469.583 215.917 469.271 215.375 468.812 214.75C468.396 214.25 467.812 213.646 467.062 212.938C466.354 212.188 465.396 211.354 464.188 210.438ZM477.375 233.438C477.458 237.146 477.646 240 477.938 242C478.271 243.958 478.625 245.417 479 246.375C479.458 247.458 479.958 248.104 480.5 248.312C481.292 248.312 482.188 247.979 483.188 247.312C484.188 246.604 485.167 245.542 486.125 244.125C487.125 242.708 488.021 240.938 488.812 238.812C489.646 236.688 490.25 234.208 490.625 231.375C491 228.542 490.896 226.042 490.312 223.875C489.729 221.708 488.958 219.896 488 218.438C487.042 216.938 486.062 215.812 485.062 215.062C484.062 214.271 483.312 213.875 482.812 213.875C482.229 213.875 481.708 214.042 481.25 214.375C480.792 214.667 480.146 215.354 479.312 216.438C478.896 217.021 478.521 217.854 478.188 218.938C477.896 219.896 477.646 221.167 477.438 222.75C477.229 224.333 477.167 226.375 477.25 228.875L477.375 233.438Z" fill="black"/>
</svg>
