<svg width="375" height="266" viewBox="0 0 375 266" fill="none" xmlns="http://www.w3.org/2000/svg">
<path d="M49.3828 54.4531C54.1094 54.7396 57.9766 54.9544 60.9844 55.0977C64.1354 55.2409 66.6419 55.3125 68.5039 55.3125C70.6523 55.4557 72.2995 55.4557 73.4453 55.3125H79.0312C81.1797 55.3125 84.1875 55.3841 88.0547 55.5273C92.0651 55.5273 97.293 55.599 103.738 55.7422C103.022 56.7448 102.449 57.9622 102.02 59.3945C101.59 60.8268 101.232 62.2591 100.945 63.6914C100.516 65.2669 100.229 66.9857 100.086 68.8477C99.9427 71.1393 99.6562 74.7201 99.2266 79.5898C98.9401 83.7435 98.5104 89.5443 97.9375 96.9922C97.5078 104.297 96.9349 113.822 96.2188 125.566C100.372 125.566 103.953 125.208 106.961 124.492C109.969 123.633 112.475 122.63 114.48 121.484C116.772 120.339 118.634 118.978 120.066 117.402C120.783 116.543 121.57 115.612 122.43 114.609C123.146 113.75 124.077 112.819 125.223 111.816C126.368 110.814 127.586 109.74 128.875 108.594C128.589 112.461 128.374 115.827 128.23 118.691C128.087 121.413 127.944 123.704 127.801 125.566C127.658 127.715 127.514 129.434 127.371 130.723C127.371 132.298 127.228 134.375 126.941 136.953C126.655 139.245 126.368 142.324 126.082 146.191C125.796 149.915 125.509 154.642 125.223 160.371C123.79 157.507 122.43 155.286 121.141 153.711C119.995 151.992 118.992 150.703 118.133 149.844C116.987 148.841 115.984 148.125 115.125 147.695C114.122 147.409 112.762 147.122 111.043 146.836C109.467 146.549 107.462 146.406 105.027 146.406C102.736 146.263 99.7279 146.12 96.0039 145.977C96.0039 154.427 96.1471 161.23 96.4336 166.387C96.8633 171.543 97.293 175.553 97.7227 178.418C98.2956 181.855 98.9401 184.29 99.6562 185.723C100.516 187.012 101.733 188.516 103.309 190.234C104.741 191.81 106.674 193.672 109.109 195.82C111.544 197.969 114.695 200.404 118.562 203.125C115.268 203.841 112.117 204.342 109.109 204.629C106.245 204.772 103.595 204.987 101.16 205.273C98.4388 205.56 95.8607 205.703 93.4258 205.703C90.8477 205.703 87.6966 205.846 83.9727 206.133C80.6784 206.419 76.5964 206.706 71.7266 206.992C66.8568 207.279 60.9844 207.637 54.1094 208.066C56.5443 205.632 58.4779 203.411 59.9102 201.406C61.4857 199.258 62.7031 197.396 63.5625 195.82C64.5651 194.102 65.2812 192.598 65.7109 191.309C65.9974 189.733 66.4271 187.083 67 183.359C67.4297 180.208 67.931 175.84 68.5039 170.254C69.0768 164.668 69.7214 157.292 70.4375 148.125L12 148.77L13.0742 134.375C20.0924 124.349 25.6784 116.042 29.832 109.453C34.1289 102.721 37.4232 97.2786 39.7148 93.125C42.293 88.3984 44.1549 84.6745 45.3008 81.9531C46.0169 79.375 46.6615 76.6536 47.2344 73.7891C47.8073 71.3542 48.3086 68.4896 48.7383 65.1953C49.168 61.7578 49.3828 58.1771 49.3828 54.4531ZM73.0156 127.715C73.3021 123.848 73.5169 120.339 73.6602 117.188C73.9466 113.893 74.1615 111.029 74.3047 108.594C74.4479 105.872 74.5195 103.294 74.5195 100.859V92.9102C74.5195 90.332 74.5195 87.3242 74.5195 83.8867C74.6628 80.306 74.806 76.2956 74.9492 71.8555L43.3672 128.145L73.0156 127.715ZM195.477 52.7344C202.065 52.5911 208.725 54.0951 215.457 57.2461C222.189 60.3971 228.276 65.1953 233.719 71.6406C239.161 77.9427 243.602 85.8919 247.039 95.4883C250.477 105.085 252.267 116.328 252.41 129.219C252.553 137.812 251.909 145.618 250.477 152.637C249.044 159.655 247.111 165.957 244.676 171.543C242.241 176.986 239.448 181.855 236.297 186.152C233.289 190.306 230.21 193.887 227.059 196.895C223.908 199.759 220.9 202.051 218.035 203.77C215.171 205.488 212.736 206.634 210.73 207.207C208.152 208.066 205.073 208.854 201.492 209.57C197.911 210.143 194.188 210.501 190.32 210.645C186.453 210.931 182.586 210.716 178.719 210C174.995 209.427 171.701 208.281 168.836 206.562C165.971 204.844 162.605 202.409 158.738 199.258C155.014 195.964 151.434 191.523 147.996 185.938C144.559 180.208 141.622 173.047 139.188 164.453C136.753 155.859 135.535 145.332 135.535 132.871C135.535 120.41 136.967 109.238 139.832 99.3555C142.84 89.4727 146.922 81.0938 152.078 74.2188C157.378 67.3438 163.68 62.1159 170.984 58.5352C178.432 54.8112 186.596 52.8776 195.477 52.7344ZM165.184 132.656C165.04 141.107 165.542 148.483 166.688 154.785C167.833 161.087 169.194 166.387 170.77 170.684C172.345 174.98 173.921 178.418 175.496 180.996C177.215 183.431 178.504 185.15 179.363 186.152C180.223 187.441 181.798 188.301 184.09 188.73C186.382 189.16 188.816 189.375 191.395 189.375C193.973 189.232 196.479 188.874 198.914 188.301C201.349 187.585 203.211 186.654 204.5 185.508C205.216 184.792 206.219 183.001 207.508 180.137C208.94 177.272 210.301 173.548 211.59 168.965C213.022 164.382 214.311 159.082 215.457 153.066C216.603 146.908 217.391 140.319 217.82 133.301C218.25 125.423 218.25 118.19 217.82 111.602C217.391 104.87 216.746 98.9974 215.887 93.9844C215.027 88.9714 214.025 84.8177 212.879 81.5234C211.733 78.2292 210.516 76.0091 209.227 74.8633C207.365 73.1445 205.073 71.9271 202.352 71.2109C199.773 70.4948 197.124 70.2083 194.402 70.3516C191.824 70.4948 189.318 70.9961 186.883 71.8555C184.591 72.7148 182.801 73.8607 181.512 75.293C178.934 78.1576 176.642 81.1654 174.637 84.3164C172.632 87.4674 170.984 91.263 169.695 95.7031C168.406 100.143 167.332 105.371 166.473 111.387C165.757 117.259 165.327 124.349 165.184 132.656ZM294.305 54.4531C299.031 54.7396 302.898 54.9544 305.906 55.0977C309.057 55.2409 311.564 55.3125 313.426 55.3125C315.574 55.4557 317.221 55.4557 318.367 55.3125H323.953C326.102 55.3125 329.109 55.3841 332.977 55.5273C336.987 55.5273 342.215 55.599 348.66 55.7422C347.944 56.7448 347.371 57.9622 346.941 59.3945C346.512 60.8268 346.154 62.2591 345.867 63.6914C345.438 65.2669 345.151 66.9857 345.008 68.8477C344.865 71.1393 344.578 74.7201 344.148 79.5898C343.862 83.7435 343.432 89.5443 342.859 96.9922C342.43 104.297 341.857 113.822 341.141 125.566C345.294 125.566 348.875 125.208 351.883 124.492C354.891 123.633 357.397 122.63 359.402 121.484C361.694 120.339 363.556 118.978 364.988 117.402C365.704 116.543 366.492 115.612 367.352 114.609C368.068 113.75 368.999 112.819 370.145 111.816C371.29 110.814 372.508 109.74 373.797 108.594C373.51 112.461 373.296 115.827 373.152 118.691C373.009 121.413 372.866 123.704 372.723 125.566C372.579 127.715 372.436 129.434 372.293 130.723C372.293 132.298 372.15 134.375 371.863 136.953C371.577 139.245 371.29 142.324 371.004 146.191C370.717 149.915 370.431 154.642 370.145 160.371C368.712 157.507 367.352 155.286 366.062 153.711C364.917 151.992 363.914 150.703 363.055 149.844C361.909 148.841 360.906 148.125 360.047 147.695C359.044 147.409 357.684 147.122 355.965 146.836C354.389 146.549 352.384 146.406 349.949 146.406C347.658 146.263 344.65 146.12 340.926 145.977C340.926 154.427 341.069 161.23 341.355 166.387C341.785 171.543 342.215 175.553 342.645 178.418C343.217 181.855 343.862 184.29 344.578 185.723C345.438 187.012 346.655 188.516 348.23 190.234C349.663 191.81 351.596 193.672 354.031 195.82C356.466 197.969 359.617 200.404 363.484 203.125C360.19 203.841 357.039 204.342 354.031 204.629C351.167 204.772 348.517 204.987 346.082 205.273C343.361 205.56 340.783 205.703 338.348 205.703C335.77 205.703 332.618 205.846 328.895 206.133C325.6 206.419 321.518 206.706 316.648 206.992C311.779 207.279 305.906 207.637 299.031 208.066C301.466 205.632 303.4 203.411 304.832 201.406C306.408 199.258 307.625 197.396 308.484 195.82C309.487 194.102 310.203 192.598 310.633 191.309C310.919 189.733 311.349 187.083 311.922 183.359C312.352 180.208 312.853 175.84 313.426 170.254C313.999 164.668 314.643 157.292 315.359 148.125L256.922 148.77L257.996 134.375C265.014 124.349 270.6 116.042 274.754 109.453C279.051 102.721 282.345 97.2786 284.637 93.125C287.215 88.3984 289.077 84.6745 290.223 81.9531C290.939 79.375 291.583 76.6536 292.156 73.7891C292.729 71.3542 293.23 68.4896 293.66 65.1953C294.09 61.7578 294.305 58.1771 294.305 54.4531ZM317.938 127.715C318.224 123.848 318.439 120.339 318.582 117.188C318.868 113.893 319.083 111.029 319.227 108.594C319.37 105.872 319.441 103.294 319.441 100.859V92.9102C319.441 90.332 319.441 87.3242 319.441 83.8867C319.585 80.306 319.728 76.2956 319.871 71.8555L288.289 128.145L317.938 127.715Z" fill="#25A942"/>
<rect x="-5" y="87" width="385" height="45" fill="#FFFEFE"/>
<path d="M67.7803 94.8428C69.0986 95.0771 70.1826 95.2383 71.0322 95.3262C71.8818 95.4141 72.5703 95.4873 73.0977 95.5459C73.7129 95.6045 74.1963 95.6191 74.5479 95.5898H75.8662C76.335 95.5898 76.9209 95.5898 77.624 95.5898C78.3564 95.5605 79.2646 95.5459 80.3486 95.5459C80.9639 96.9814 81.5205 98.2998 82.0186 99.501C82.5459 100.702 82.9854 101.728 83.3369 102.577C83.7471 103.603 84.1279 104.525 84.4795 105.346C84.8896 106.371 85.3291 107.499 85.7979 108.729C86.2666 109.96 86.6914 111.117 87.0723 112.201C87.4824 113.285 87.8193 114.179 88.083 114.882C88.3467 115.585 88.4785 115.907 88.4785 115.849C88.4785 115.819 88.4932 115.526 88.5225 114.97C88.5518 114.384 88.5811 113.666 88.6104 112.816C88.6396 111.938 88.6689 110.985 88.6982 109.96C88.7568 108.905 88.7861 107.895 88.7861 106.928C88.8154 105.932 88.8301 105.023 88.8301 104.203C88.8301 103.383 88.8008 102.768 88.7422 102.357C88.6543 101.859 88.4785 101.288 88.2148 100.644C87.9805 100.087 87.6582 99.4277 87.248 98.666C86.8379 97.875 86.2666 96.9814 85.5342 95.9854C86.7354 96.0146 87.7168 96.0293 88.4785 96.0293C89.2402 96.0293 89.8555 96.0293 90.3242 96.0293C90.8516 96.0293 91.2617 96.0146 91.5547 95.9854C91.9355 95.9854 92.4043 95.9561 92.9609 95.8975C93.459 95.8389 94.0742 95.7949 94.8066 95.7656C95.5684 95.707 96.5059 95.6338 97.6191 95.5459C96.9746 96.1318 96.4619 96.6885 96.0811 97.2158C95.7002 97.7432 95.3926 98.2119 95.1582 98.6221C94.8945 99.0908 94.7188 99.5303 94.6309 99.9404C94.5137 100.468 94.4111 101.332 94.3232 102.533C94.2646 103.705 94.1914 105.023 94.1035 106.488C94.0449 107.953 93.9863 109.477 93.9277 111.059C93.8691 112.641 93.8105 114.091 93.752 115.409C93.752 116.405 93.7227 117.475 93.6641 118.617C93.6055 119.584 93.5469 120.683 93.4883 121.913C93.4297 123.114 93.3564 124.33 93.2686 125.561L89.3574 125.648C88.2148 123.627 87.248 121.898 86.457 120.463C85.6953 118.998 85.0654 117.797 84.5674 116.859C84.0107 115.775 83.542 114.867 83.1611 114.135C82.8389 113.432 82.4141 112.626 81.8867 111.718C81.4473 110.956 80.8906 110.019 80.2168 108.905C79.5723 107.792 78.7959 106.518 77.8877 105.082C77.7998 107.104 77.7559 108.832 77.7559 110.268C77.7852 111.674 77.8291 112.846 77.8877 113.783C77.9756 114.867 78.0781 115.775 78.1953 116.508C78.3418 117.211 78.5469 118.002 78.8105 118.881C79.0449 119.643 79.3232 120.536 79.6455 121.562C79.9971 122.587 80.4219 123.744 80.9199 125.033C79.1914 124.945 77.9023 124.901 77.0527 124.901H75.7344C75.3242 124.901 74.7676 124.945 74.0645 125.033C73.4785 125.092 72.6729 125.18 71.6475 125.297C70.6514 125.414 69.4062 125.575 67.9121 125.78C68.6152 124.931 69.1719 124.154 69.582 123.451C70.0215 122.719 70.3584 122.104 70.5928 121.605C70.8857 121.02 71.0908 120.507 71.208 120.067C71.2959 119.599 71.3545 118.793 71.3838 117.65C71.4131 116.479 71.4131 115.16 71.3838 113.695C71.3838 112.201 71.3545 110.634 71.2959 108.993C71.2666 107.353 71.2227 105.829 71.1641 104.423C71.1055 103.017 71.0322 101.815 70.9443 100.819C70.8857 99.8232 70.8418 99.208 70.8125 98.9736C70.7246 98.5928 70.5488 98.1826 70.2852 97.7432C70.0508 97.3623 69.7432 96.9375 69.3623 96.4688C68.9814 95.9707 68.4541 95.4287 67.7803 94.8428ZM113.439 92.8652C115.021 92.9238 116.618 93.2168 118.229 93.7441C119.87 94.2422 121.379 95.0625 122.756 96.2051C124.133 97.3184 125.305 98.7686 126.271 100.556C127.238 102.313 127.839 104.467 128.073 107.016C128.278 109.096 128.015 111.161 127.282 113.212C126.579 115.233 125.598 117.094 124.338 118.793C123.078 120.492 121.628 121.942 119.987 123.144C118.347 124.315 116.706 125.092 115.065 125.473C114.069 125.707 112.971 125.736 111.77 125.561C110.598 125.355 109.396 124.989 108.166 124.462C106.965 123.905 105.778 123.202 104.606 122.353C103.464 121.503 102.424 120.536 101.486 119.452C100.549 118.339 99.7578 117.138 99.1133 115.849C98.498 114.56 98.1172 113.212 97.9707 111.806C97.8242 110.634 97.8096 109.345 97.9268 107.938C98.0732 106.503 98.3516 105.082 98.7617 103.676C99.2012 102.24 99.8018 100.863 100.563 99.5449C101.354 98.1973 102.351 97.0254 103.552 96.0293C104.753 95.0039 106.159 94.2129 107.771 93.6562C109.411 93.0703 111.301 92.8066 113.439 92.8652ZM105.573 110.663C105.163 113.798 105.456 116.317 106.452 118.222C107.478 120.126 109.016 121.283 111.066 121.693C112.062 121.898 113.015 121.693 113.923 121.078C114.86 120.434 115.71 119.511 116.472 118.31C117.233 117.108 117.893 115.702 118.449 114.091C119.006 112.479 119.416 110.795 119.68 109.037C119.943 107.279 119.958 105.697 119.724 104.291C119.519 102.855 119.152 101.64 118.625 100.644C118.098 99.6182 117.453 98.8271 116.691 98.2705C115.959 97.7139 115.197 97.4062 114.406 97.3477C113.029 97.2598 111.828 97.626 110.803 98.4463C109.777 99.2373 108.913 100.277 108.21 101.566C107.507 102.855 106.936 104.306 106.496 105.917C106.086 107.528 105.778 109.11 105.573 110.663ZM128.161 93.9199C130.124 94.1543 131.823 94.3301 133.259 94.4473C134.694 94.5352 135.881 94.6084 136.818 94.667C137.902 94.7256 138.811 94.7402 139.543 94.7109C140.305 94.6816 141.345 94.6084 142.663 94.4912C143.776 94.4033 145.241 94.2861 147.058 94.1396C148.874 93.9639 151.145 93.7295 153.869 93.4365C153.898 94.1104 153.913 94.7695 153.913 95.4141C153.942 96.0293 153.972 96.5713 154.001 97.04C154.03 97.5967 154.045 98.1094 154.045 98.5781C154.045 99.0762 154.016 99.7061 153.957 100.468C153.898 101.112 153.796 101.933 153.649 102.929C153.532 103.896 153.342 105.053 153.078 106.4C152.668 104.818 152.272 103.544 151.892 102.577C151.511 101.581 151.159 100.79 150.837 100.204C150.485 99.5303 150.134 99.0176 149.782 98.666C149.401 98.4023 148.947 98.1826 148.42 98.0068C147.951 97.8604 147.351 97.7432 146.618 97.6553C145.915 97.5674 145.08 97.582 144.113 97.6992C143.967 101.566 143.864 104.701 143.806 107.104C143.747 109.506 143.703 111.381 143.674 112.729C143.645 114.34 143.63 115.497 143.63 116.2C143.659 117.196 143.82 118.178 144.113 119.145C144.348 119.965 144.729 120.814 145.256 121.693C145.783 122.572 146.545 123.349 147.541 124.022H142.18C141.682 124.022 141.066 124.052 140.334 124.11C139.719 124.169 138.928 124.228 137.961 124.286C137.023 124.345 135.925 124.447 134.665 124.594C135.104 123.832 135.456 123.144 135.72 122.528C135.983 121.913 136.188 121.386 136.335 120.946C136.511 120.419 136.643 119.95 136.73 119.54C136.76 118.954 136.833 117.768 136.95 115.98C136.979 115.248 137.009 114.34 137.038 113.256C137.097 112.172 137.155 110.883 137.214 109.389C137.302 107.895 137.375 106.181 137.434 104.247C137.521 102.284 137.609 100.072 137.697 97.6113C137.17 97.4648 136.672 97.4795 136.203 97.6553C135.734 97.8018 135.324 97.9922 134.973 98.2266C134.562 98.5195 134.167 98.8711 133.786 99.2812C133.405 99.7793 132.98 100.424 132.512 101.215C132.102 101.889 131.633 102.782 131.105 103.896C130.578 104.979 129.978 106.327 129.304 107.938C129.157 106.239 129.055 104.848 128.996 103.764C128.938 102.65 128.894 101.786 128.864 101.171C128.835 100.438 128.82 99.8965 128.82 99.5449C128.82 99.2227 128.791 98.7979 128.732 98.2705C128.674 97.8311 128.601 97.2598 128.513 96.5566C128.425 95.8242 128.308 94.9453 128.161 93.9199ZM168.02 95.6777C169.777 95.8242 171.315 95.9121 172.634 95.9414C173.981 95.9707 175.124 95.9854 176.062 95.9854C177.146 95.9854 178.083 95.9561 178.874 95.8975C179.694 95.8096 180.764 95.6924 182.082 95.5459C183.195 95.3994 184.631 95.209 186.389 94.9746C188.146 94.7109 190.285 94.374 192.805 93.9639C192.482 94.4619 192.204 94.9893 191.97 95.5459C191.765 96.0732 191.589 96.5566 191.442 96.9961C191.296 97.5234 191.164 98.0361 191.047 98.5342C190.959 99.0908 190.856 99.7793 190.739 100.6C190.622 101.303 190.476 102.196 190.3 103.28C190.153 104.335 189.963 105.595 189.729 107.06C188.85 104.774 187.956 103.017 187.048 101.786C186.169 100.556 185.349 99.6475 184.587 99.0615C183.708 98.3877 182.873 98.0068 182.082 97.9189C180.939 97.9189 180.002 98.1387 179.27 98.5781C178.537 99.0176 177.937 99.5889 177.468 100.292C177.028 100.966 176.691 101.713 176.457 102.533C176.223 103.324 176.062 104.101 175.974 104.862C175.886 105.595 175.827 106.254 175.798 106.84C175.769 107.396 175.739 107.777 175.71 107.982C176.735 107.924 177.6 107.851 178.303 107.763C179.006 107.675 179.562 107.587 179.973 107.499C180.471 107.382 180.866 107.265 181.159 107.147C181.599 106.913 182.038 106.635 182.478 106.312C182.858 106.02 183.254 105.668 183.664 105.258C184.104 104.848 184.484 104.35 184.807 103.764C184.631 104.818 184.47 105.697 184.323 106.4C184.206 107.104 184.104 107.66 184.016 108.07C183.898 108.568 183.825 108.949 183.796 109.213C183.737 109.477 183.664 109.843 183.576 110.312C183.488 110.722 183.386 111.249 183.269 111.894C183.151 112.538 183.02 113.344 182.873 114.311C182.521 113.695 182.155 113.197 181.774 112.816C181.394 112.406 181.042 112.084 180.72 111.85C180.339 111.586 179.973 111.381 179.621 111.234C179.24 111.117 178.83 111 178.391 110.883C178.01 110.795 177.556 110.707 177.028 110.619C176.53 110.502 175.988 110.399 175.402 110.312C175.461 111.894 175.549 113.256 175.666 114.398C175.783 115.512 175.886 116.449 175.974 117.211C176.091 118.09 176.208 118.822 176.325 119.408C176.472 119.994 176.706 120.624 177.028 121.298C177.292 121.884 177.658 122.558 178.127 123.319C178.625 124.052 179.255 124.843 180.017 125.692C179.431 125.546 178.815 125.443 178.171 125.385C177.526 125.326 176.955 125.282 176.457 125.253C175.842 125.224 175.256 125.224 174.699 125.253C174.113 125.282 173.469 125.341 172.766 125.429C172.18 125.487 171.506 125.575 170.744 125.692C169.982 125.81 169.177 125.941 168.327 126.088C168.825 125.59 169.235 125.092 169.558 124.594C169.88 124.096 170.114 123.656 170.261 123.275C170.437 122.836 170.554 122.411 170.612 122.001C170.642 121.649 170.656 120.888 170.656 119.716C170.656 118.515 170.642 117.123 170.612 115.541C170.583 113.93 170.539 112.23 170.48 110.443C170.422 108.656 170.363 106.986 170.305 105.434C170.246 103.852 170.173 102.504 170.085 101.391C170.026 100.277 169.953 99.6035 169.865 99.3691C169.748 99.0762 169.616 98.7393 169.47 98.3584C169.235 97.7432 168.752 96.8496 168.02 95.6777ZM206.823 92.8652C208.405 92.9238 210.002 93.2168 211.613 93.7441C213.254 94.2422 214.763 95.0625 216.14 96.2051C217.517 97.3184 218.688 98.7686 219.655 100.556C220.622 102.313 221.223 104.467 221.457 107.016C221.662 109.096 221.398 111.161 220.666 113.212C219.963 115.233 218.981 117.094 217.722 118.793C216.462 120.492 215.012 121.942 213.371 123.144C211.73 124.315 210.09 125.092 208.449 125.473C207.453 125.707 206.354 125.736 205.153 125.561C203.981 125.355 202.78 124.989 201.55 124.462C200.349 123.905 199.162 123.202 197.99 122.353C196.848 121.503 195.808 120.536 194.87 119.452C193.933 118.339 193.142 117.138 192.497 115.849C191.882 114.56 191.501 113.212 191.354 111.806C191.208 110.634 191.193 109.345 191.311 107.938C191.457 106.503 191.735 105.082 192.146 103.676C192.585 102.24 193.186 100.863 193.947 99.5449C194.738 98.1973 195.734 97.0254 196.936 96.0293C198.137 95.0039 199.543 94.2129 201.154 93.6562C202.795 93.0703 204.685 92.8066 206.823 92.8652ZM198.957 110.663C198.547 113.798 198.84 116.317 199.836 118.222C200.861 120.126 202.399 121.283 204.45 121.693C205.446 121.898 206.398 121.693 207.307 121.078C208.244 120.434 209.094 119.511 209.855 118.31C210.617 117.108 211.276 115.702 211.833 114.091C212.39 112.479 212.8 110.795 213.063 109.037C213.327 107.279 213.342 105.697 213.107 104.291C212.902 102.855 212.536 101.64 212.009 100.644C211.481 99.6182 210.837 98.8271 210.075 98.2705C209.343 97.7139 208.581 97.4062 207.79 97.3477C206.413 97.2598 205.212 97.626 204.187 98.4463C203.161 99.2373 202.297 100.277 201.594 101.566C200.891 102.855 200.319 104.306 199.88 105.917C199.47 107.528 199.162 109.11 198.957 110.663ZM222.424 95.1064C223.303 95.2822 224.05 95.4141 224.665 95.502C225.28 95.5898 225.793 95.6631 226.203 95.7217C226.672 95.7803 227.067 95.8096 227.39 95.8096C227.712 95.8096 228.151 95.7949 228.708 95.7656C229.206 95.7363 229.836 95.7217 230.598 95.7217C231.359 95.6924 232.326 95.6484 233.498 95.5898C232.824 96.0586 232.282 96.4541 231.872 96.7764C231.462 97.0986 231.154 97.377 230.949 97.6113C230.686 97.875 230.524 98.0947 230.466 98.2705C230.407 98.3877 230.349 98.8271 230.29 99.5889C230.231 100.321 230.173 101.259 230.114 102.401C230.085 103.515 230.085 104.774 230.114 106.181C230.144 107.558 230.217 108.964 230.334 110.399C230.48 111.835 230.686 113.227 230.949 114.574C231.213 115.893 231.564 117.05 232.004 118.046C232.473 119.042 233.029 119.818 233.674 120.375C234.348 120.932 235.153 121.137 236.091 120.99C237.321 120.814 238.317 120.214 239.079 119.188C239.841 118.163 240.412 116.918 240.793 115.453C241.203 113.988 241.452 112.421 241.54 110.751C241.657 109.052 241.672 107.47 241.584 106.005C241.525 104.511 241.408 103.222 241.232 102.138C241.057 101.054 240.896 100.38 240.749 100.116C240.573 99.8232 240.339 99.4863 240.046 99.1055C239.812 98.7832 239.504 98.417 239.123 98.0068C238.742 97.5674 238.303 97.0986 237.805 96.6006C238.713 96.6299 239.533 96.6592 240.266 96.6885C240.998 96.6885 241.613 96.7031 242.111 96.7324C242.697 96.7617 243.225 96.791 243.693 96.8203C244.162 96.8496 244.748 96.8936 245.451 96.9521C246.037 97.0107 246.784 97.0693 247.692 97.1279C248.63 97.1865 249.743 97.2744 251.032 97.3916C250.534 97.5088 250.124 97.6699 249.802 97.875C249.509 98.0801 249.274 98.2998 249.099 98.5342C248.894 98.7979 248.747 99.0615 248.659 99.3252C248.571 99.5596 248.498 100.263 248.439 101.435C248.41 102.577 248.352 103.969 248.264 105.609C248.205 107.221 248.103 108.979 247.956 110.883C247.81 112.758 247.575 114.545 247.253 116.244C246.96 117.943 246.564 119.452 246.066 120.771C245.598 122.089 244.982 122.997 244.221 123.495C243.107 124.228 241.936 124.755 240.705 125.077C239.475 125.37 238.229 125.531 236.97 125.561C235.71 125.561 234.465 125.458 233.234 125.253C232.033 125.019 230.876 124.74 229.763 124.418C228.62 124.066 227.668 123.275 226.906 122.045C226.174 120.814 225.588 119.364 225.148 117.694C224.738 115.995 224.431 114.179 224.226 112.245C224.05 110.282 223.933 108.393 223.874 106.576C223.845 104.76 223.845 103.119 223.874 101.654C223.933 100.16 223.977 99.0322 224.006 98.2705C224.006 97.8896 223.947 97.5234 223.83 97.1719C223.742 96.8496 223.581 96.5127 223.347 96.1611C223.142 95.7803 222.834 95.4287 222.424 95.1064ZM250.109 94.8428C251.428 95.0771 252.512 95.2383 253.361 95.3262C254.211 95.4141 254.899 95.4873 255.427 95.5459C256.042 95.6045 256.525 95.6191 256.877 95.5898H258.195C258.664 95.5898 259.25 95.5898 259.953 95.5898C260.686 95.5605 261.594 95.5459 262.678 95.5459C263.293 96.9814 263.85 98.2998 264.348 99.501C264.875 100.702 265.314 101.728 265.666 102.577C266.076 103.603 266.457 104.525 266.809 105.346C267.219 106.371 267.658 107.499 268.127 108.729C268.596 109.96 269.021 111.117 269.401 112.201C269.812 113.285 270.148 114.179 270.412 114.882C270.676 115.585 270.808 115.907 270.808 115.849C270.808 115.819 270.822 115.526 270.852 114.97C270.881 114.384 270.91 113.666 270.939 112.816C270.969 111.938 270.998 110.985 271.027 109.96C271.086 108.905 271.115 107.895 271.115 106.928C271.145 105.932 271.159 105.023 271.159 104.203C271.159 103.383 271.13 102.768 271.071 102.357C270.983 101.859 270.808 101.288 270.544 100.644C270.31 100.087 269.987 99.4277 269.577 98.666C269.167 97.875 268.596 96.9814 267.863 95.9854C269.064 96.0146 270.046 96.0293 270.808 96.0293C271.569 96.0293 272.185 96.0293 272.653 96.0293C273.181 96.0293 273.591 96.0146 273.884 95.9854C274.265 95.9854 274.733 95.9561 275.29 95.8975C275.788 95.8389 276.403 95.7949 277.136 95.7656C277.897 95.707 278.835 95.6338 279.948 95.5459C279.304 96.1318 278.791 96.6885 278.41 97.2158C278.029 97.7432 277.722 98.2119 277.487 98.6221C277.224 99.0908 277.048 99.5303 276.96 99.9404C276.843 100.468 276.74 101.332 276.652 102.533C276.594 103.705 276.521 105.023 276.433 106.488C276.374 107.953 276.315 109.477 276.257 111.059C276.198 112.641 276.14 114.091 276.081 115.409C276.081 116.405 276.052 117.475 275.993 118.617C275.935 119.584 275.876 120.683 275.817 121.913C275.759 123.114 275.686 124.33 275.598 125.561L271.687 125.648C270.544 123.627 269.577 121.898 268.786 120.463C268.024 118.998 267.395 117.797 266.896 116.859C266.34 115.775 265.871 114.867 265.49 114.135C265.168 113.432 264.743 112.626 264.216 111.718C263.776 110.956 263.22 110.019 262.546 108.905C261.901 107.792 261.125 106.518 260.217 105.082C260.129 107.104 260.085 108.832 260.085 110.268C260.114 111.674 260.158 112.846 260.217 113.783C260.305 114.867 260.407 115.775 260.524 116.508C260.671 117.211 260.876 118.002 261.14 118.881C261.374 119.643 261.652 120.536 261.975 121.562C262.326 122.587 262.751 123.744 263.249 125.033C261.521 124.945 260.231 124.901 259.382 124.901H258.063C257.653 124.901 257.097 124.945 256.394 125.033C255.808 125.092 255.002 125.18 253.977 125.297C252.98 125.414 251.735 125.575 250.241 125.78C250.944 124.931 251.501 124.154 251.911 123.451C252.351 122.719 252.688 122.104 252.922 121.605C253.215 121.02 253.42 120.507 253.537 120.067C253.625 119.599 253.684 118.793 253.713 117.65C253.742 116.479 253.742 115.16 253.713 113.695C253.713 112.201 253.684 110.634 253.625 108.993C253.596 107.353 253.552 105.829 253.493 104.423C253.435 103.017 253.361 101.815 253.273 100.819C253.215 99.8232 253.171 99.208 253.142 98.9736C253.054 98.5928 252.878 98.1826 252.614 97.7432C252.38 97.3623 252.072 96.9375 251.691 96.4688C251.311 95.9707 250.783 95.4287 250.109 94.8428ZM278.366 94.667C279.392 94.8135 280.285 94.9307 281.047 95.0186C281.809 95.1064 282.438 95.1797 282.937 95.2383C283.522 95.2969 284.021 95.3408 284.431 95.3701C284.899 95.4287 285.471 95.3994 286.145 95.2822C286.848 95.165 287.595 95.0479 288.386 94.9307C289.177 94.7842 289.997 94.667 290.847 94.5791C291.696 94.4912 292.517 94.4912 293.308 94.5791C293.835 94.6377 294.509 94.7549 295.329 94.9307C296.149 95.1064 297.014 95.3848 297.922 95.7656C298.859 96.1465 299.797 96.6445 300.734 97.2598C301.672 97.875 302.521 98.6514 303.283 99.5889C304.045 100.526 304.675 101.64 305.173 102.929C305.671 104.218 305.949 105.727 306.008 107.455C306.096 110.033 305.861 112.377 305.305 114.486C304.748 116.596 303.884 118.397 302.712 119.892C301.569 121.386 300.119 122.558 298.361 123.407C296.604 124.257 294.553 124.726 292.209 124.813C290.422 124.96 288.664 125.092 286.936 125.209C286.203 125.268 285.427 125.312 284.606 125.341C283.815 125.37 283.024 125.399 282.233 125.429C281.442 125.429 280.681 125.414 279.948 125.385C279.216 125.355 278.542 125.312 277.927 125.253C278.601 124.931 279.143 124.608 279.553 124.286C279.992 123.964 280.329 123.686 280.563 123.451C280.827 123.158 281.018 122.895 281.135 122.66C281.193 122.338 281.281 121.708 281.398 120.771C281.486 119.979 281.604 118.852 281.75 117.387C281.896 115.922 282.072 113.93 282.277 111.41L282.541 108.29C282.688 106.356 282.746 104.774 282.717 103.544C282.717 102.313 282.688 101.347 282.629 100.644C282.541 99.8232 282.424 99.2227 282.277 98.8418C282.16 98.5195 281.94 98.1387 281.618 97.6992C281.325 97.3477 280.915 96.9229 280.388 96.4248C279.89 95.8975 279.216 95.3115 278.366 94.667ZM287.639 110.839C287.697 113.446 287.829 115.453 288.034 116.859C288.269 118.236 288.518 119.262 288.781 119.936C289.104 120.697 289.455 121.151 289.836 121.298C290.393 121.298 291.022 121.063 291.726 120.595C292.429 120.097 293.117 119.35 293.791 118.354C294.494 117.357 295.124 116.112 295.681 114.618C296.267 113.124 296.691 111.381 296.955 109.389C297.219 107.396 297.146 105.639 296.735 104.115C296.325 102.592 295.783 101.317 295.109 100.292C294.436 99.2373 293.747 98.4463 293.044 97.9189C292.341 97.3623 291.813 97.084 291.462 97.084C291.052 97.084 290.686 97.2012 290.363 97.4355C290.041 97.6406 289.587 98.124 289.001 98.8857C288.708 99.2959 288.444 99.8818 288.21 100.644C288.005 101.317 287.829 102.211 287.683 103.324C287.536 104.438 287.492 105.873 287.551 107.631L287.639 110.839Z" fill="black"/>
</svg>
