<svg width="178" height="22" viewBox="0 0 178 22" fill="none" xmlns="http://www.w3.org/2000/svg">
<path d="M11.136 21.288L4.32 2.472C4.02133 1.61867 3.69067 1.10667 3.328 0.935999C2.96533 0.765332 1.96267 0.679998 0.32 0.679998V0.359999H12V0.679998C10.528 0.679998 9.51467 0.754665 8.96 0.903999C8.42667 1.032 8.16 1.30933 8.16 1.736C8.16 1.90667 8.21333 2.152 8.32 2.472L13.312 15.976L16.736 5.896C17.0987 4.76533 17.28 3.86933 17.28 3.208C17.28 1.52267 16.1813 0.679998 13.984 0.679998V0.359999H22.24V0.679998C20.4053 0.679998 19.072 1.512 18.24 3.176C17.984 3.70933 17.6 4.70133 17.088 6.152L12 21.288H11.136ZM34.4235 13.416L31.4795 5.288L28.5355 13.416H34.4235ZM34.5835 13.8H28.3755L27.3835 16.616C27.1275 17.32 26.9995 17.928 26.9995 18.44C26.9995 19.2293 27.2982 19.7947 27.8955 20.136C28.4928 20.4773 29.3355 20.648 30.4235 20.648V21H22.3275V20.648C23.7995 20.648 24.9408 20.0933 25.7515 18.984C26.1995 18.3653 26.7755 17.0853 27.4795 15.144L32.8875 0.103998H33.5595L40.4395 18.856C40.7595 19.7307 41.0795 20.2533 41.3995 20.424C41.7195 20.5733 42.6795 20.648 44.2795 20.648V21H32.5035V20.648C34.1035 20.648 35.2022 20.5947 35.7995 20.488C36.3968 20.36 36.6955 20.1147 36.6955 19.752L36.6315 19.432L34.5835 13.8ZM52.934 9.896H55.91C57.4673 9.896 58.6193 9.608 59.366 9.032C60.262 8.34933 60.71 7.19733 60.71 5.576C60.71 3.784 60.3367 2.52533 59.59 1.8C58.8647 1.05333 57.6487 0.679998 55.942 0.679998H54.406C53.958 0.679998 53.6273 0.711999 53.414 0.775999C53.2007 0.84 53.062 0.978666 52.998 1.192C52.9553 1.384 52.934 1.78933 52.934 2.408V9.896ZM65.894 16.392V17.448C65.894 18.7067 65.7767 19.5813 65.542 20.072C65.158 20.8827 64.4007 21.288 63.27 21.288C61.798 21.288 60.8273 20.7333 60.358 19.624C59.974 18.728 59.782 17.0213 59.782 14.504V13.832C59.782 13.6187 59.7927 13.3947 59.814 13.16C59.814 12.0293 59.5473 11.272 59.014 10.888C58.4807 10.4827 57.7127 10.28 56.71 10.28H52.934V18.856C52.934 19.496 52.966 19.9013 53.03 20.072C53.1153 20.2427 53.2753 20.3813 53.51 20.488C53.766 20.5733 54.2673 20.6267 55.014 20.648C55.782 20.6693 56.582 20.68 57.414 20.68V21H44.39V20.648C46.63 20.648 47.974 20.5627 48.422 20.392C48.6353 20.3067 48.7847 20.1893 48.87 20.04C48.9553 19.8693 48.998 19.4747 48.998 18.856V2.408C48.998 1.81067 48.9553 1.43733 48.87 1.288C48.8273 1.20267 48.6887 1.11733 48.454 1.032C47.8353 0.797332 46.4807 0.679998 44.39 0.679998V0.359999H57.478C59.782 0.359999 61.6167 0.978666 62.982 2.216C64.07 3.19733 64.614 4.21067 64.614 5.256C64.614 6.49333 64.1873 7.50667 63.334 8.296C62.31 9.256 60.6887 9.864 58.47 10.12C60.7313 10.568 62.2247 11.8373 62.95 13.928C63.3127 14.9733 63.494 16.552 63.494 18.664C63.494 19.2827 63.5473 19.7307 63.654 20.008C63.7607 20.2853 64.0167 20.424 64.422 20.424C64.87 20.424 65.1793 20.072 65.35 19.368C65.5207 18.6427 65.606 17.6507 65.606 16.392H65.894ZM74.803 2.408V18.856C74.803 19.4747 74.8457 19.8693 74.931 20.04C74.9737 20.1253 75.1017 20.2107 75.315 20.296C75.9337 20.5307 77.203 20.648 79.123 20.648V21H66.515V20.648C67.4323 20.648 68.2217 20.616 68.883 20.552C69.5657 20.488 70.0243 20.4133 70.259 20.328C70.515 20.2213 70.675 20.104 70.739 19.976C70.8243 19.8267 70.867 19.4533 70.867 18.856V2.408C70.867 1.81067 70.8243 1.43733 70.739 1.288C70.6963 1.20267 70.5577 1.11733 70.323 1.032C69.7043 0.797332 68.435 0.679998 66.515 0.679998V0.359999H79.155V0.679998C78.2377 0.679998 77.4377 0.711999 76.755 0.775999C76.0937 0.84 75.6243 0.925333 75.347 1.032L75.027 1.16C74.8777 1.288 74.803 1.704 74.803 2.408ZM91.8923 13.416L88.9483 5.288L86.0043 13.416H91.8923ZM92.0523 13.8H85.8443L84.8523 16.616C84.5963 17.32 84.4683 17.928 84.4683 18.44C84.4683 19.2293 84.7669 19.7947 85.3643 20.136C85.9616 20.4773 86.8043 20.648 87.8923 20.648V21H79.7963V20.648C81.2683 20.648 82.4096 20.0933 83.2203 18.984C83.6683 18.3653 84.2443 17.0853 84.9483 15.144L90.3563 0.103998H91.0283L97.9083 18.856C98.2283 19.7307 98.5483 20.2533 98.8683 20.424C99.1883 20.5733 100.148 20.648 101.748 20.648V21H89.9723V20.648C91.5723 20.648 92.6709 20.5947 93.2683 20.488C93.8656 20.36 94.1643 20.1147 94.1643 19.752L94.1003 19.432L92.0523 13.8ZM120.803 0.359999V9.48H120.355C119.864 6.00267 119.085 3.61333 118.019 2.312C117.144 1.224 115.853 0.679998 114.147 0.679998C113.72 0.679998 113.485 0.701332 113.443 0.743999C113.357 0.807999 113.315 1.08533 113.315 1.576V18.856C113.315 19.4747 113.357 19.8693 113.443 20.04C113.485 20.1253 113.635 20.2213 113.891 20.328C114.147 20.4133 114.637 20.488 115.363 20.552C116.088 20.616 117.069 20.648 118.307 20.648V21H104.387V20.648C105.603 20.648 106.573 20.616 107.299 20.552C108.024 20.488 108.515 20.4133 108.771 20.328C109.027 20.2213 109.187 20.104 109.251 19.976C109.336 19.8267 109.379 19.4533 109.379 18.856V1.608C109.379 1.05333 109.315 0.754666 109.187 0.712C109.123 0.690666 108.899 0.679998 108.515 0.679998C106.851 0.679998 105.581 1.21333 104.707 2.28C103.64 3.60267 102.84 5.98133 102.307 9.416H101.859V0.359999H120.803ZM129.678 2.408V18.856C129.678 19.4747 129.721 19.8693 129.806 20.04C129.849 20.1253 129.977 20.2107 130.19 20.296C130.809 20.5307 132.078 20.648 133.998 20.648V21H121.39V20.648C122.307 20.648 123.097 20.616 123.758 20.552C124.441 20.488 124.899 20.4133 125.134 20.328C125.39 20.2213 125.55 20.104 125.614 19.976C125.699 19.8267 125.742 19.4533 125.742 18.856V2.408C125.742 1.81067 125.699 1.43733 125.614 1.288C125.571 1.20267 125.433 1.11733 125.198 1.032C124.579 0.797332 123.31 0.679998 121.39 0.679998V0.359999H134.03V0.679998C133.113 0.679998 132.313 0.711999 131.63 0.775999C130.969 0.84 130.499 0.925333 130.222 1.032L129.902 1.16C129.753 1.288 129.678 1.704 129.678 2.408ZM154.159 10.664C154.159 13.8 153.103 16.4027 150.991 18.472C149.071 20.3493 146.906 21.288 144.495 21.288C142.042 21.288 139.877 20.392 137.999 18.6C135.887 16.5733 134.831 13.928 134.831 10.664C134.831 7.528 135.887 4.936 137.999 2.888C139.919 1.032 142.085 0.103998 144.495 0.103998C146.949 0.103998 149.114 0.989332 150.991 2.76C153.103 4.76533 154.159 7.4 154.159 10.664ZM149.935 10.664C149.935 7.29333 149.477 4.73333 148.559 2.984C147.663 1.23467 146.309 0.359999 144.495 0.359999C142.703 0.359999 141.349 1.23467 140.431 2.984C139.535 4.73333 139.087 7.29333 139.087 10.664C139.087 13.992 139.535 16.552 140.431 18.344C141.349 20.1147 142.703 21 144.495 21C146.266 21 147.61 20.1147 148.527 18.344C149.466 16.552 149.935 13.992 149.935 10.664ZM173.257 14.664V5.768C173.257 3.82667 172.926 2.49333 172.265 1.768C171.603 1.04267 170.409 0.679998 168.681 0.679998V0.359999H177.737V0.679998C176.222 0.679998 175.166 1.04267 174.569 1.768C173.971 2.49333 173.673 3.82667 173.673 5.768V21.128H172.937L160.169 4.232L159.817 3.816C159.753 3.816 159.721 4.008 159.721 4.392V14.824C159.721 17.1707 160.041 18.728 160.681 19.496C161.321 20.264 162.515 20.648 164.265 20.648V21H154.953V20.648C156.617 20.648 157.758 20.3067 158.377 19.624C158.995 18.9413 159.305 17.5973 159.305 15.592V4.712C159.305 3.51733 158.985 2.57867 158.345 1.896C157.577 1.08533 156.446 0.679998 154.953 0.679998V0.359999H161.545L172.649 14.76C172.926 15.1227 173.097 15.304 173.161 15.304C173.225 15.304 173.257 15.0907 173.257 14.664Z" fill="black"/>
</svg>
