<svg width="263" height="78" viewBox="0 0 263 78" fill="none" xmlns="http://www.w3.org/2000/svg">
<path d="M19.6406 43L7.35938 16.2578V37.4922C7.35938 39.4453 7.57031 40.6641 7.99219 41.1484C8.57031 41.8047 9.48438 42.1328 10.7344 42.1328H11.8594V43H0.796875V42.1328H1.92188C3.26562 42.1328 4.21875 41.7266 4.78125 40.9141C5.125 40.4297 5.29688 39.2891 5.29688 37.4922V16.7266C5.29688 15.3516 5.14062 14.3359 4.82812 13.6797C4.71875 13.4453 4.57031 13.2344 4.38281 13.0469C4.19531 12.8437 3.9375 12.6719 3.60938 12.5312C3.29688 12.3906 2.91406 12.2812 2.46094 12.2031C2.00781 12.125 1.45312 12.0859 0.796875 12.0859V11.2188H9.79688L21.3281 36.0859L32.6719 11.2188H41.6719V12.0859H40.5703C39.2109 12.0859 38.25 12.4922 37.6875 13.3047C37.3438 13.7891 37.1719 14.9297 37.1719 16.7266V37.4922C37.1719 39.4453 37.3906 40.6641 37.8281 41.1484C38.4062 41.8047 39.3203 42.1328 40.5703 42.1328H41.6719V43H28.1719V42.1328H29.2969C30.6406 42.1328 31.5938 41.7266 32.1562 40.9141C32.5 40.4297 32.6719 39.2891 32.6719 37.4922V16.2578L20.4141 43H19.6406ZM54.7031 20.8984C56.2188 20.8984 57.6094 21.1953 58.875 21.7891C60.1406 22.3828 61.2266 23.1797 62.1328 24.1797C63.0547 25.1797 63.7656 26.3438 64.2656 27.6719C64.7812 29 65.0391 30.3984 65.0391 31.8672C65.0391 33.4141 64.7734 34.8984 64.2422 36.3203C63.7266 37.7266 63 38.9766 62.0625 40.0703C61.125 41.1641 60.0078 42.0391 58.7109 42.6953C57.4141 43.3359 55.9922 43.6562 54.4453 43.6562C52.9297 43.6562 51.5469 43.3438 50.2969 42.7188C49.0625 42.0938 48 41.2656 47.1094 40.2344C46.2188 39.1875 45.5312 37.9922 45.0469 36.6484C44.5625 35.3047 44.3203 33.9141 44.3203 32.4766C44.3203 31.0234 44.5703 29.6016 45.0703 28.2109C45.5703 26.8203 46.2734 25.5859 47.1797 24.5078C48.1016 23.4141 49.1953 22.5391 50.4609 21.8828C51.7422 21.2266 53.1562 20.8984 54.7031 20.8984ZM53.9766 22.4219C53.2891 22.4219 52.625 22.5703 51.9844 22.8672C51.3594 23.1484 50.7969 23.6172 50.2969 24.2734C49.8125 24.9141 49.4219 25.75 49.125 26.7812C48.8281 27.7969 48.6797 29.0391 48.6797 30.5078C48.6797 32.0234 48.8359 33.4766 49.1484 34.8672C49.4766 36.2578 49.9297 37.4844 50.5078 38.5469C51.1016 39.5938 51.8125 40.4297 52.6406 41.0547C53.4844 41.6797 54.4219 41.9922 55.4531 41.9922C56.2031 41.9922 56.8906 41.8516 57.5156 41.5703C58.1562 41.2734 58.7109 40.8047 59.1797 40.1641C59.6484 39.5078 60.0156 38.6484 60.2812 37.5859C60.5469 36.5234 60.6797 35.2188 60.6797 33.6719C60.6797 32.125 60.5312 30.6719 60.2344 29.3125C59.9375 27.9531 59.5 26.7656 58.9219 25.75C58.3594 24.7188 57.6562 23.9062 56.8125 23.3125C55.9844 22.7188 55.0391 22.4219 53.9766 22.4219ZM74.4844 20.8984V25.7266C76.2969 22.5078 78.1406 20.8984 80.0156 20.8984C80.4375 20.8984 80.8281 20.9688 81.1875 21.1094C81.5469 21.25 81.8594 21.4453 82.125 21.6953C82.4062 21.9297 82.6172 22.2031 82.7578 22.5156C82.9141 22.8281 82.9922 23.1562 82.9922 23.5C82.9922 24.1094 82.7891 24.625 82.3828 25.0469C81.9766 25.4688 81.4922 25.6797 80.9297 25.6797C80.6641 25.6797 80.3672 25.5938 80.0391 25.4219C79.7109 25.25 79.3828 25.0703 79.0547 24.8828C78.7422 24.6797 78.4531 24.4922 78.1875 24.3203C77.9219 24.1484 77.7188 24.0625 77.5781 24.0625C77.375 24.0625 77.1484 24.1562 76.8984 24.3438C76.6484 24.5156 76.3906 24.7656 76.125 25.0938C75.8594 25.4062 75.5859 25.7891 75.3047 26.2422C75.0234 26.6797 74.75 27.1641 74.4844 27.6953V37.9844C74.4844 38.625 74.5234 39.2031 74.6016 39.7188C74.6797 40.2344 74.8438 40.6719 75.0938 41.0312C75.3594 41.3906 75.7422 41.6719 76.2422 41.875C76.7422 42.0625 77.4062 42.1562 78.2344 42.1562V43H67.2422V42.1562C67.9297 42.1562 68.4922 42.1094 68.9297 42.0156C69.3672 41.9219 69.7109 41.7344 69.9609 41.4531C70.2109 41.1719 70.3828 40.7734 70.4766 40.2578C70.5703 39.7266 70.6172 39.0312 70.6172 38.1719V29.8516C70.6172 27.3203 70.5625 25.8359 70.4531 25.3984C70.25 24.4766 69.7266 24.0156 68.8828 24.0156C68.3984 24.0156 67.8516 24.1328 67.2422 24.3672L67.0078 23.5234L73.5 20.8984H74.4844ZM87.7969 29.6172C87.7969 31.2109 88.0078 32.6406 88.4297 33.9062C88.8516 35.1719 89.4219 36.25 90.1406 37.1406C90.8594 38.0156 91.6875 38.6875 92.625 39.1562C93.5781 39.6094 94.5781 39.8359 95.625 39.8359C97.0312 39.8359 98.25 39.4531 99.2812 38.6875C100.328 37.9062 101.203 36.5781 101.906 34.7031L102.633 35.1719C102.461 36.2188 102.133 37.25 101.648 38.2656C101.164 39.2812 100.539 40.1875 99.7734 40.9844C99.0234 41.7812 98.1406 42.4297 97.125 42.9297C96.125 43.4141 95.0312 43.6562 93.8438 43.6562C92.5625 43.6562 91.3516 43.3984 90.2109 42.8828C89.0859 42.3516 88.0938 41.6094 87.2344 40.6562C86.3906 39.6875 85.7188 38.5234 85.2188 37.1641C84.7188 35.7891 84.4688 34.25 84.4688 32.5469C84.4688 30.6875 84.7188 29.0391 85.2188 27.6016C85.7344 26.1484 86.4375 24.9219 87.3281 23.9219C88.2188 22.9219 89.2656 22.1641 90.4688 21.6484C91.6875 21.1328 92.9922 20.875 94.3828 20.875C95.5703 20.875 96.6641 21.0859 97.6641 21.5078C98.6797 21.9141 99.5547 22.5 100.289 23.2656C101.023 24.0312 101.594 24.9531 102 26.0312C102.422 27.0938 102.633 28.2891 102.633 29.6172H87.7969ZM87.7969 28.2578H97.7344C97.6719 26.8828 97.5078 25.9141 97.2422 25.3516C96.8516 24.4766 96.2656 23.7891 95.4844 23.2891C94.7188 22.7891 93.9141 22.5391 93.0703 22.5391C92.4297 22.5391 91.8125 22.6719 91.2188 22.9375C90.625 23.1875 90.0859 23.5625 89.6016 24.0625C89.1172 24.5469 88.7109 25.1406 88.3828 25.8438C88.0703 26.5469 87.875 27.3516 87.7969 28.2578ZM131.391 20.8984V28.2109H130.617C130.32 27.0547 129.984 26.1016 129.609 25.3516C129.234 24.5859 128.805 23.9766 128.32 23.5234C127.852 23.0703 127.32 22.75 126.727 22.5625C126.148 22.375 125.5 22.2812 124.781 22.2812C124.234 22.2812 123.734 22.3672 123.281 22.5391C122.844 22.6953 122.461 22.9062 122.133 23.1719C121.82 23.4219 121.57 23.7188 121.383 24.0625C121.211 24.3906 121.125 24.7266 121.125 25.0703C121.125 25.5078 121.188 25.9141 121.312 26.2891C121.438 26.6641 121.695 27.0547 122.086 27.4609C122.492 27.8516 123.062 28.2734 123.797 28.7266C124.547 29.1797 125.547 29.7109 126.797 30.3203C127.953 30.8828 128.922 31.4375 129.703 31.9844C130.5 32.5312 131.141 33.0781 131.625 33.625C132.125 34.1719 132.477 34.7422 132.68 35.3359C132.898 35.9141 133.008 36.5156 133.008 37.1406C133.008 38.125 132.797 39.0234 132.375 39.8359C131.969 40.6328 131.43 41.3125 130.758 41.875C130.086 42.4375 129.32 42.875 128.461 43.1875C127.602 43.5 126.727 43.6562 125.836 43.6562C125.18 43.6562 124.477 43.6016 123.727 43.4922C122.977 43.3828 122.18 43.2031 121.336 42.9531C121.07 42.875 120.836 42.8203 120.633 42.7891C120.43 42.7422 120.242 42.7188 120.07 42.7188C119.727 42.7188 119.445 42.9219 119.227 43.3281H118.453V35.6641H119.227C119.445 36.7578 119.773 37.7188 120.211 38.5469C120.648 39.375 121.156 40.0625 121.734 40.6094C122.328 41.1562 122.977 41.5703 123.68 41.8516C124.398 42.1328 125.133 42.2734 125.883 42.2734C126.414 42.2734 126.898 42.1875 127.336 42.0156C127.789 41.8438 128.18 41.6172 128.508 41.3359C128.836 41.0391 129.086 40.6953 129.258 40.3047C129.445 39.9141 129.539 39.4922 129.539 39.0391C129.539 38.5078 129.461 38.0312 129.305 37.6094C129.148 37.1719 128.859 36.75 128.438 36.3438C128.016 35.9375 127.438 35.5156 126.703 35.0781C125.969 34.625 125.023 34.1094 123.867 33.5312C122.711 32.9688 121.773 32.4453 121.055 31.9609C120.352 31.4766 119.797 30.9922 119.391 30.5078C118.984 30.0078 118.711 29.4922 118.57 28.9609C118.43 28.4141 118.359 27.7969 118.359 27.1094C118.359 26.2344 118.516 25.4219 118.828 24.6719C119.156 23.9062 119.609 23.25 120.188 22.7031C120.766 22.1406 121.453 21.7031 122.25 21.3906C123.047 21.0625 123.922 20.8984 124.875 20.8984C125.172 20.8984 125.555 20.9453 126.023 21.0391C126.492 21.1328 126.961 21.2344 127.43 21.3438C127.914 21.4531 128.352 21.5547 128.742 21.6484C129.133 21.7422 129.398 21.7891 129.539 21.7891C129.789 21.7891 129.984 21.7344 130.125 21.625C130.266 21.5156 130.43 21.2734 130.617 20.8984H131.391ZM139.828 29.6172C139.828 31.2109 140.039 32.6406 140.461 33.9062C140.883 35.1719 141.453 36.25 142.172 37.1406C142.891 38.0156 143.719 38.6875 144.656 39.1562C145.609 39.6094 146.609 39.8359 147.656 39.8359C149.062 39.8359 150.281 39.4531 151.312 38.6875C152.359 37.9062 153.234 36.5781 153.938 34.7031L154.664 35.1719C154.492 36.2188 154.164 37.25 153.68 38.2656C153.195 39.2812 152.57 40.1875 151.805 40.9844C151.055 41.7812 150.172 42.4297 149.156 42.9297C148.156 43.4141 147.062 43.6562 145.875 43.6562C144.594 43.6562 143.383 43.3984 142.242 42.8828C141.117 42.3516 140.125 41.6094 139.266 40.6562C138.422 39.6875 137.75 38.5234 137.25 37.1641C136.75 35.7891 136.5 34.25 136.5 32.5469C136.5 30.6875 136.75 29.0391 137.25 27.6016C137.766 26.1484 138.469 24.9219 139.359 23.9219C140.25 22.9219 141.297 22.1641 142.5 21.6484C143.719 21.1328 145.023 20.875 146.414 20.875C147.602 20.875 148.695 21.0859 149.695 21.5078C150.711 21.9141 151.586 22.5 152.32 23.2656C153.055 24.0312 153.625 24.9531 154.031 26.0312C154.453 27.0938 154.664 28.2891 154.664 29.6172H139.828ZM139.828 28.2578H149.766C149.703 26.8828 149.539 25.9141 149.273 25.3516C148.883 24.4766 148.297 23.7891 147.516 23.2891C146.75 22.7891 145.945 22.5391 145.102 22.5391C144.461 22.5391 143.844 22.6719 143.25 22.9375C142.656 23.1875 142.117 23.5625 141.633 24.0625C141.148 24.5469 140.742 25.1406 140.414 25.8438C140.102 26.5469 139.906 27.3516 139.828 28.2578ZM163.781 14.4766V21.5312H168.797V23.1719H163.781V37.0938C163.781 37.7969 163.836 38.3828 163.945 38.8516C164.055 39.3047 164.203 39.6641 164.391 39.9297C164.578 40.1953 164.797 40.3828 165.047 40.4922C165.312 40.5859 165.602 40.6328 165.914 40.6328C166.43 40.6328 166.93 40.4766 167.414 40.1641C167.898 39.8359 168.273 39.3594 168.539 38.7344H169.453C169.172 39.5 168.828 40.1719 168.422 40.75C168.031 41.3281 167.602 41.8125 167.133 42.2031C166.664 42.5781 166.164 42.8594 165.633 43.0469C165.102 43.25 164.57 43.3516 164.039 43.3516C163.68 43.3516 163.312 43.2969 162.938 43.1875C162.578 43.0938 162.234 42.9531 161.906 42.7656C161.594 42.5625 161.305 42.3203 161.039 42.0391C160.773 41.7578 160.562 41.4297 160.406 41.0547C160.078 40.3047 159.914 39.1562 159.914 37.6094V23.1719H156.516V22.3984C157.375 22.0547 158.25 21.4766 159.141 20.6641C160.047 19.8359 160.852 18.8594 161.555 17.7344C161.727 17.4375 161.938 17.0234 162.188 16.4922C162.453 15.9453 162.742 15.2734 163.055 14.4766H163.781ZM177.141 14.4766V21.5312H182.156V23.1719H177.141V37.0938C177.141 37.7969 177.195 38.3828 177.305 38.8516C177.414 39.3047 177.562 39.6641 177.75 39.9297C177.938 40.1953 178.156 40.3828 178.406 40.4922C178.672 40.5859 178.961 40.6328 179.273 40.6328C179.789 40.6328 180.289 40.4766 180.773 40.1641C181.258 39.8359 181.633 39.3594 181.898 38.7344H182.812C182.531 39.5 182.188 40.1719 181.781 40.75C181.391 41.3281 180.961 41.8125 180.492 42.2031C180.023 42.5781 179.523 42.8594 178.992 43.0469C178.461 43.25 177.93 43.3516 177.398 43.3516C177.039 43.3516 176.672 43.2969 176.297 43.1875C175.938 43.0938 175.594 42.9531 175.266 42.7656C174.953 42.5625 174.664 42.3203 174.398 42.0391C174.133 41.7578 173.922 41.4297 173.766 41.0547C173.438 40.3047 173.273 39.1562 173.273 37.6094V23.1719H169.875V22.3984C170.734 22.0547 171.609 21.4766 172.5 20.6641C173.406 19.8359 174.211 18.8594 174.914 17.7344C175.086 17.4375 175.297 17.0234 175.547 16.4922C175.812 15.9453 176.102 15.2734 176.414 14.4766H177.141ZM189.727 9.67188C190.055 9.67188 190.359 9.73438 190.641 9.85938C190.938 9.98437 191.188 10.1563 191.391 10.375C191.609 10.5781 191.781 10.8281 191.906 11.125C192.031 11.4062 192.094 11.7109 192.094 12.0391C192.094 12.3672 192.031 12.6797 191.906 12.9766C191.781 13.2578 191.609 13.5078 191.391 13.7266C191.188 13.9453 190.938 14.1172 190.641 14.2422C190.359 14.3672 190.055 14.4297 189.727 14.4297C189.398 14.4297 189.086 14.3672 188.789 14.2422C188.508 14.1172 188.258 13.9453 188.039 13.7266C187.82 13.5078 187.648 13.2578 187.523 12.9766C187.398 12.6797 187.336 12.3672 187.336 12.0391C187.336 11.7109 187.398 11.4062 187.523 11.125C187.648 10.8281 187.812 10.5781 188.016 10.375C188.234 10.1563 188.492 9.98437 188.789 9.85938C189.086 9.73438 189.398 9.67188 189.727 9.67188ZM191.672 20.8984V38.1484C191.672 38.8359 191.695 39.3984 191.742 39.8359C191.789 40.2578 191.859 40.6016 191.953 40.8672C192.047 41.1328 192.164 41.3359 192.305 41.4766C192.461 41.6016 192.633 41.7188 192.82 41.8281C193.227 42.0469 193.93 42.1562 194.93 42.1562V43H184.5V42.1562C185.031 42.1562 185.461 42.1328 185.789 42.0859C186.133 42.0391 186.406 41.9609 186.609 41.8516C186.828 41.7422 186.992 41.6094 187.102 41.4531C187.227 41.2812 187.344 41.0781 187.453 40.8438C187.672 40.3594 187.781 39.4609 187.781 38.1484V29.875C187.781 28.5156 187.758 27.4453 187.711 26.6641C187.664 25.8828 187.578 25.2969 187.453 24.9062C187.344 24.5156 187.172 24.2734 186.938 24.1797C186.719 24.0703 186.438 24.0156 186.094 24.0156C185.656 24.0156 185.125 24.1328 184.5 24.3672L184.172 23.5234L190.641 20.8984H191.672ZM203.883 25.4453C206.398 22.4141 208.797 20.8984 211.078 20.8984C211.875 20.8984 212.609 21.0312 213.281 21.2969C213.953 21.5625 214.539 22.0078 215.039 22.6328C215.539 23.2578 215.93 24.0859 216.211 25.1172C216.492 26.1484 216.633 27.4375 216.633 28.9844V38.1484C216.633 39.0703 216.68 39.7969 216.773 40.3281C216.883 40.8594 217.062 41.2656 217.312 41.5469C217.562 41.8125 217.898 41.9844 218.32 42.0625C218.742 42.125 219.273 42.1562 219.914 42.1562V43H209.297V42.1562H209.742C210.445 42.1562 210.992 42.0938 211.383 41.9688C211.789 41.8438 212.094 41.6328 212.297 41.3359C212.5 41.0234 212.625 40.6094 212.672 40.0938C212.734 39.5781 212.766 38.9297 212.766 38.1484V29.3594C212.766 27.4062 212.508 25.9922 211.992 25.1172C211.492 24.2266 210.641 23.7812 209.438 23.7812C207.578 23.7812 205.727 24.7969 203.883 26.8281V38.1484C203.883 39.5703 203.969 40.4688 204.141 40.8438C204.25 41.0781 204.367 41.2812 204.492 41.4531C204.633 41.625 204.812 41.7656 205.031 41.875C205.266 41.9688 205.562 42.0391 205.922 42.0859C206.297 42.1328 206.781 42.1562 207.375 42.1562V43H196.758V42.1562H197.227C197.789 42.1562 198.25 42.0938 198.609 41.9688C198.969 41.8438 199.25 41.625 199.453 41.3125C199.672 41 199.82 40.5938 199.898 40.0938C199.977 39.5781 200.016 38.9297 200.016 38.1484V30.1797C200.016 27.6328 199.953 26.0625 199.828 25.4688C199.719 24.9062 199.539 24.5234 199.289 24.3203C199.055 24.1172 198.734 24.0156 198.328 24.0156C197.891 24.0156 197.367 24.1328 196.758 24.3672L196.406 23.5234L202.875 20.8984H203.883V25.4453ZM227.367 35.1719C226.039 34.5156 225.023 33.625 224.32 32.5C223.633 31.3594 223.289 30.0859 223.289 28.6797C223.289 27.6172 223.5 26.6172 223.922 25.6797C224.344 24.7266 224.938 23.8984 225.703 23.1953C226.469 22.4922 227.367 21.9375 228.398 21.5312C229.445 21.1094 230.594 20.8984 231.844 20.8984C233.906 20.8984 235.68 21.3984 237.164 22.3984H241.711C242.055 22.3984 242.312 22.4062 242.484 22.4219C242.672 22.4219 242.805 22.4375 242.883 22.4688C242.977 22.4844 243.031 22.5078 243.047 22.5391C243.062 22.5703 243.086 22.6094 243.117 22.6562C243.211 22.7969 243.258 23.0469 243.258 23.4062C243.258 23.6406 243.25 23.8359 243.234 23.9922C243.234 24.1328 243.188 24.2422 243.094 24.3203C243.016 24.3984 242.867 24.4531 242.648 24.4844C242.445 24.5 242.133 24.5078 241.711 24.5078H238.922C239.797 25.6484 240.234 27.0859 240.234 28.8203C240.234 29.8047 240.031 30.7422 239.625 31.6328C239.234 32.5078 238.672 33.2734 237.938 33.9297C237.203 34.5859 236.312 35.1094 235.266 35.5C234.219 35.8906 233.055 36.0859 231.773 36.0859C230.727 36.0859 229.641 35.9297 228.516 35.6172C227.812 36.2109 227.344 36.7344 227.109 37.1875C226.875 37.625 226.758 38 226.758 38.3125C226.758 38.5469 226.805 38.75 226.898 38.9219C226.992 39.0938 227.211 39.2422 227.555 39.3672C227.914 39.4766 228.438 39.5703 229.125 39.6484C229.812 39.7109 230.75 39.7578 231.938 39.7891C233.547 39.8359 234.867 39.8828 235.898 39.9297C236.945 39.9766 237.711 40.0391 238.195 40.1172C238.914 40.2109 239.57 40.3984 240.164 40.6797C240.758 40.9609 241.258 41.3125 241.664 41.7344C242.086 42.1562 242.406 42.6406 242.625 43.1875C242.859 43.7344 242.977 44.3281 242.977 44.9688C242.977 46.7344 242.148 48.3906 240.492 49.9375C238.039 52.2188 234.859 53.3594 230.953 53.3594C229.875 53.3594 228.781 53.2422 227.672 53.0078C226.562 52.7734 225.555 52.4531 224.648 52.0469C223.742 51.6562 223 51.1875 222.422 50.6406C221.844 50.0938 221.555 49.5078 221.555 48.8828C221.555 48.6484 221.586 48.4062 221.648 48.1562C221.727 47.9219 221.836 47.6641 221.977 47.3828C222.133 47.1172 222.328 46.8203 222.562 46.4922C222.812 46.1641 223.109 45.7812 223.453 45.3438C223.562 45.2031 224.359 44.3594 225.844 42.8125C225.031 42.3281 224.453 41.8984 224.109 41.5234C223.781 41.1328 223.617 40.6953 223.617 40.2109C223.617 39.9297 223.656 39.6406 223.734 39.3438C223.812 39.0312 223.984 38.6797 224.25 38.2891C224.516 37.8984 224.891 37.4531 225.375 36.9531C225.875 36.4531 226.539 35.8594 227.367 35.1719ZM231.445 22.0234C230.883 22.0234 230.352 22.1406 229.852 22.375C229.352 22.5938 228.914 22.9375 228.539 23.4062C228.18 23.8594 227.891 24.4453 227.672 25.1641C227.469 25.8672 227.367 26.6953 227.367 27.6484C227.367 28.7109 227.469 29.6875 227.672 30.5781C227.891 31.4688 228.203 32.2422 228.609 32.8984C229.016 33.5391 229.508 34.0391 230.086 34.3984C230.664 34.7578 231.32 34.9375 232.055 34.9375C232.648 34.9375 233.195 34.8281 233.695 34.6094C234.195 34.3906 234.625 34.0547 234.984 33.6016C235.344 33.1484 235.625 32.5781 235.828 31.8906C236.031 31.1875 236.133 30.3594 236.133 29.4062C236.133 28.3594 236.023 27.3906 235.805 26.5C235.602 25.5938 235.297 24.8125 234.891 24.1562C234.5 23.4844 234.016 22.9609 233.438 22.5859C232.859 22.2109 232.195 22.0234 231.445 22.0234ZM227.133 43C225.648 44.6094 224.906 45.9844 224.906 47.125C224.906 47.6406 225.117 48.1094 225.539 48.5312C225.977 48.9531 226.562 49.3125 227.297 49.6094C228.031 49.9062 228.891 50.1328 229.875 50.2891C230.875 50.4609 231.93 50.5469 233.039 50.5469C234.445 50.5469 235.664 50.4062 236.695 50.125C237.742 49.8438 238.602 49.4766 239.273 49.0234C239.945 48.5859 240.445 48.0859 240.773 47.5234C241.102 46.9766 241.266 46.4297 241.266 45.8828C241.266 45.4766 241.18 45.1328 241.008 44.8516C240.836 44.5703 240.523 44.3359 240.07 44.1484C239.633 43.9766 239.023 43.8359 238.242 43.7266C237.461 43.6328 236.461 43.5703 235.242 43.5391C233.477 43.4922 231.922 43.4219 230.578 43.3281C229.234 43.2344 228.086 43.125 227.133 43ZM259.5 20.8984V28.2109H258.727C258.43 27.0547 258.094 26.1016 257.719 25.3516C257.344 24.5859 256.914 23.9766 256.43 23.5234C255.961 23.0703 255.43 22.75 254.836 22.5625C254.258 22.375 253.609 22.2812 252.891 22.2812C252.344 22.2812 251.844 22.3672 251.391 22.5391C250.953 22.6953 250.57 22.9062 250.242 23.1719C249.93 23.4219 249.68 23.7188 249.492 24.0625C249.32 24.3906 249.234 24.7266 249.234 25.0703C249.234 25.5078 249.297 25.9141 249.422 26.2891C249.547 26.6641 249.805 27.0547 250.195 27.4609C250.602 27.8516 251.172 28.2734 251.906 28.7266C252.656 29.1797 253.656 29.7109 254.906 30.3203C256.062 30.8828 257.031 31.4375 257.812 31.9844C258.609 32.5312 259.25 33.0781 259.734 33.625C260.234 34.1719 260.586 34.7422 260.789 35.3359C261.008 35.9141 261.117 36.5156 261.117 37.1406C261.117 38.125 260.906 39.0234 260.484 39.8359C260.078 40.6328 259.539 41.3125 258.867 41.875C258.195 42.4375 257.43 42.875 256.57 43.1875C255.711 43.5 254.836 43.6562 253.945 43.6562C253.289 43.6562 252.586 43.6016 251.836 43.4922C251.086 43.3828 250.289 43.2031 249.445 42.9531C249.18 42.875 248.945 42.8203 248.742 42.7891C248.539 42.7422 248.352 42.7188 248.18 42.7188C247.836 42.7188 247.555 42.9219 247.336 43.3281H246.562V35.6641H247.336C247.555 36.7578 247.883 37.7188 248.32 38.5469C248.758 39.375 249.266 40.0625 249.844 40.6094C250.438 41.1562 251.086 41.5703 251.789 41.8516C252.508 42.1328 253.242 42.2734 253.992 42.2734C254.523 42.2734 255.008 42.1875 255.445 42.0156C255.898 41.8438 256.289 41.6172 256.617 41.3359C256.945 41.0391 257.195 40.6953 257.367 40.3047C257.555 39.9141 257.648 39.4922 257.648 39.0391C257.648 38.5078 257.57 38.0312 257.414 37.6094C257.258 37.1719 256.969 36.75 256.547 36.3438C256.125 35.9375 255.547 35.5156 254.812 35.0781C254.078 34.625 253.133 34.1094 251.977 33.5312C250.82 32.9688 249.883 32.4453 249.164 31.9609C248.461 31.4766 247.906 30.9922 247.5 30.5078C247.094 30.0078 246.82 29.4922 246.68 28.9609C246.539 28.4141 246.469 27.7969 246.469 27.1094C246.469 26.2344 246.625 25.4219 246.938 24.6719C247.266 23.9062 247.719 23.25 248.297 22.7031C248.875 22.1406 249.562 21.7031 250.359 21.3906C251.156 21.0625 252.031 20.8984 252.984 20.8984C253.281 20.8984 253.664 20.9453 254.133 21.0391C254.602 21.1328 255.07 21.2344 255.539 21.3438C256.023 21.4531 256.461 21.5547 256.852 21.6484C257.242 21.7422 257.508 21.7891 257.648 21.7891C257.898 21.7891 258.094 21.7344 258.234 21.625C258.375 21.5156 258.539 21.2734 258.727 20.8984H259.5Z" fill="black"/>
<path d="M6 61.5C4.61929 61.5 3.5 62.6193 3.5 64C3.5 65.3807 4.61929 66.5 6 66.5V61.5ZM129.667 64C129.667 71.3638 135.636 77.3333 143 77.3333C150.364 77.3333 156.333 71.3638 156.333 64C156.333 56.6362 150.364 50.6667 143 50.6667C135.636 50.6667 129.667 56.6362 129.667 64ZM6 66.5H143V61.5H6V66.5Z" fill="#25A942"/>
</svg>
