<svg width="284" height="74" viewBox="0 0 284 74" fill="none" xmlns="http://www.w3.org/2000/svg">
<path d="M8.61328 23.9775V32.0781C8.61328 33.8281 8.80469 34.915 9.1875 35.3389C9.70703 35.9404 10.4932 36.2412 11.5459 36.2412H12.6123V37H0.697266V36.2412H1.74316C2.31738 36.2412 2.81641 36.1455 3.24023 35.9541C3.67773 35.7627 4.01953 35.4756 4.26562 35.0928C4.53906 34.6553 4.67578 33.6504 4.67578 32.0781V14.1133C4.67578 12.377 4.49121 11.29 4.12207 10.8525C3.58887 10.251 2.7959 9.9502 1.74316 9.9502H0.697266V9.19141H10.8896C13.3643 9.19141 15.3262 9.45117 16.7754 9.9707C17.4863 10.2305 18.1494 10.5791 18.7646 11.0166C19.3799 11.4541 19.9199 11.9736 20.3848 12.5752C20.8496 13.1631 21.2119 13.8193 21.4717 14.5439C21.7451 15.2686 21.8818 16.0479 21.8818 16.8818C21.8818 18.0166 21.6904 19.0557 21.3076 19.999C20.9248 20.9287 20.3643 21.7354 19.626 22.4189C18.9014 23.0889 18.0059 23.6152 16.9395 23.998C15.873 24.3672 14.6562 24.5518 13.2891 24.5518C11.9219 24.5518 10.3633 24.3604 8.61328 23.9775ZM8.61328 22.8086C9.35156 22.9453 9.99414 23.0479 10.541 23.1162C11.1016 23.1846 11.5801 23.2188 11.9766 23.2188C12.6875 23.2188 13.3574 23.0752 13.9863 22.7881C14.6289 22.4873 15.1826 22.0771 15.6475 21.5576C16.126 21.0244 16.502 20.3955 16.7754 19.6709C17.0625 18.9463 17.2061 18.1533 17.2061 17.292C17.2061 16.2803 17.0557 15.3779 16.7549 14.585C16.4541 13.7783 16.0371 13.1016 15.5039 12.5547C14.9707 11.9941 14.3418 11.5703 13.6172 11.2832C12.9062 10.9961 12.1338 10.8525 11.2998 10.8525C10.9443 10.8525 10.541 10.8867 10.0898 10.9551C9.65234 11.0098 9.16016 11.1055 8.61328 11.2422V22.8086ZM33.8789 17.6611C35.2051 17.6611 36.4219 17.9209 37.5293 18.4404C38.6367 18.96 39.5869 19.6572 40.3799 20.5322C41.1865 21.4072 41.8086 22.4258 42.2461 23.5879C42.6973 24.75 42.9229 25.9736 42.9229 27.2588C42.9229 28.6123 42.6904 29.9111 42.2256 31.1553C41.7744 32.3857 41.1387 33.4795 40.3184 34.4365C39.498 35.3936 38.5205 36.1592 37.3857 36.7334C36.251 37.2939 35.0068 37.5742 33.6533 37.5742C32.3271 37.5742 31.1172 37.3008 30.0234 36.7539C28.9434 36.207 28.0137 35.4824 27.2344 34.5801C26.4551 33.6641 25.8535 32.6182 25.4297 31.4424C25.0059 30.2666 24.7939 29.0498 24.7939 27.792C24.7939 26.5205 25.0127 25.2764 25.4502 24.0596C25.8877 22.8428 26.5029 21.7627 27.2959 20.8193C28.1025 19.8623 29.0596 19.0967 30.167 18.5225C31.2881 17.9482 32.5254 17.6611 33.8789 17.6611ZM33.2432 18.9941C32.6416 18.9941 32.0605 19.124 31.5 19.3838C30.9531 19.6299 30.4609 20.04 30.0234 20.6143C29.5996 21.1748 29.2578 21.9062 28.998 22.8086C28.7383 23.6973 28.6084 24.7842 28.6084 26.0693C28.6084 27.3955 28.7451 28.667 29.0186 29.8838C29.3057 31.1006 29.7021 32.1738 30.208 33.1035C30.7275 34.0195 31.3496 34.751 32.0742 35.2979C32.8125 35.8447 33.6328 36.1182 34.5352 36.1182C35.1914 36.1182 35.793 35.9951 36.3398 35.749C36.9004 35.4893 37.3857 35.0791 37.7959 34.5186C38.2061 33.9443 38.5273 33.1924 38.7598 32.2627C38.9922 31.333 39.1084 30.1914 39.1084 28.8379C39.1084 27.4844 38.9785 26.2129 38.7188 25.0234C38.459 23.834 38.0762 22.7949 37.5703 21.9062C37.0781 21.0039 36.4629 20.293 35.7246 19.7734C35 19.2539 34.1729 18.9941 33.2432 18.9941ZM57.832 17.6611V24.0596H57.1553C56.8955 23.0479 56.6016 22.2139 56.2734 21.5576C55.9453 20.8877 55.5693 20.3545 55.1455 19.958C54.7354 19.5615 54.2705 19.2812 53.751 19.1172C53.2451 18.9531 52.6777 18.8711 52.0488 18.8711C51.5703 18.8711 51.1328 18.9463 50.7363 19.0967C50.3535 19.2334 50.0186 19.418 49.7314 19.6504C49.458 19.8691 49.2393 20.1289 49.0752 20.4297C48.9248 20.7168 48.8496 21.0107 48.8496 21.3115C48.8496 21.6943 48.9043 22.0498 49.0137 22.3779C49.123 22.7061 49.3486 23.0479 49.6904 23.4033C50.0459 23.7451 50.5449 24.1143 51.1875 24.5107C51.8438 24.9072 52.7188 25.3721 53.8125 25.9053C54.8242 26.3975 55.6719 26.8828 56.3555 27.3613C57.0527 27.8398 57.6133 28.3184 58.0371 28.7969C58.4746 29.2754 58.7822 29.7744 58.96 30.2939C59.1514 30.7998 59.2471 31.3262 59.2471 31.873C59.2471 32.7344 59.0625 33.5205 58.6934 34.2314C58.3379 34.9287 57.8662 35.5234 57.2783 36.0156C56.6904 36.5078 56.0205 36.8906 55.2686 37.1641C54.5166 37.4375 53.751 37.5742 52.9717 37.5742C52.3975 37.5742 51.7822 37.5264 51.126 37.4307C50.4697 37.335 49.7725 37.1777 49.0342 36.959C48.8018 36.8906 48.5967 36.8428 48.4189 36.8154C48.2412 36.7744 48.0771 36.7539 47.9268 36.7539C47.626 36.7539 47.3799 36.9316 47.1885 37.2871H46.5117V30.5811H47.1885C47.3799 31.5381 47.667 32.3789 48.0498 33.1035C48.4326 33.8281 48.877 34.4297 49.3828 34.9082C49.9023 35.3867 50.4697 35.749 51.085 35.9951C51.7139 36.2412 52.3564 36.3643 53.0127 36.3643C53.4775 36.3643 53.9014 36.2891 54.2842 36.1387C54.6807 35.9883 55.0225 35.79 55.3096 35.5439C55.5967 35.2842 55.8154 34.9834 55.9658 34.6416C56.1299 34.2998 56.2119 33.9307 56.2119 33.5342C56.2119 33.0693 56.1436 32.6523 56.0068 32.2832C55.8701 31.9004 55.6172 31.5312 55.248 31.1758C54.8789 30.8203 54.373 30.4512 53.7305 30.0684C53.0879 29.6719 52.2607 29.2207 51.249 28.7148C50.2373 28.2227 49.417 27.7646 48.7881 27.3408C48.1729 26.917 47.6875 26.4932 47.332 26.0693C46.9766 25.6318 46.7373 25.1807 46.6143 24.7158C46.4912 24.2373 46.4297 23.6973 46.4297 23.0957C46.4297 22.3301 46.5664 21.6191 46.8398 20.9629C47.127 20.293 47.5234 19.7188 48.0293 19.2402C48.5352 18.748 49.1367 18.3652 49.834 18.0918C50.5312 17.8047 51.2969 17.6611 52.1309 17.6611C52.3906 17.6611 52.7256 17.7021 53.1357 17.7842C53.5459 17.8662 53.9561 17.9551 54.3662 18.0508C54.79 18.1465 55.1729 18.2354 55.5146 18.3174C55.8564 18.3994 56.0889 18.4404 56.2119 18.4404C56.4307 18.4404 56.6016 18.3926 56.7246 18.2969C56.8477 18.2012 56.9912 17.9893 57.1553 17.6611H57.832ZM67.5117 12.042V18.2148H71.9004V19.6504H67.5117V31.832C67.5117 32.4473 67.5596 32.96 67.6553 33.3701C67.751 33.7666 67.8809 34.0811 68.0449 34.3135C68.209 34.5459 68.4004 34.71 68.6191 34.8057C68.8516 34.8877 69.1045 34.9287 69.3779 34.9287C69.8291 34.9287 70.2666 34.792 70.6904 34.5186C71.1143 34.2314 71.4424 33.8145 71.6748 33.2676H72.4746C72.2285 33.9375 71.9277 34.5254 71.5723 35.0312C71.2305 35.5371 70.8545 35.9609 70.4443 36.3027C70.0342 36.6309 69.5967 36.877 69.1318 37.041C68.667 37.2188 68.2021 37.3076 67.7373 37.3076C67.4229 37.3076 67.1016 37.2598 66.7734 37.1641C66.459 37.082 66.1582 36.959 65.8711 36.7949C65.5977 36.6172 65.3447 36.4053 65.1123 36.1592C64.8799 35.9131 64.6953 35.626 64.5586 35.2979C64.2715 34.6416 64.1279 33.6367 64.1279 32.2832V19.6504H61.1543V18.9736C61.9062 18.6729 62.6719 18.167 63.4512 17.4561C64.2441 16.7314 64.9482 15.877 65.5635 14.8926C65.7139 14.6328 65.8984 14.2705 66.1172 13.8057C66.3496 13.3271 66.6025 12.7393 66.876 12.042H67.5117ZM85.8867 17.6611V24.0596H85.21C84.9502 23.0479 84.6562 22.2139 84.3281 21.5576C84 20.8877 83.624 20.3545 83.2002 19.958C82.79 19.5615 82.3252 19.2812 81.8057 19.1172C81.2998 18.9531 80.7324 18.8711 80.1035 18.8711C79.625 18.8711 79.1875 18.9463 78.791 19.0967C78.4082 19.2334 78.0732 19.418 77.7861 19.6504C77.5127 19.8691 77.2939 20.1289 77.1299 20.4297C76.9795 20.7168 76.9043 21.0107 76.9043 21.3115C76.9043 21.6943 76.959 22.0498 77.0684 22.3779C77.1777 22.7061 77.4033 23.0479 77.7451 23.4033C78.1006 23.7451 78.5996 24.1143 79.2422 24.5107C79.8984 24.9072 80.7734 25.3721 81.8672 25.9053C82.8789 26.3975 83.7266 26.8828 84.4102 27.3613C85.1074 27.8398 85.668 28.3184 86.0918 28.7969C86.5293 29.2754 86.8369 29.7744 87.0146 30.2939C87.2061 30.7998 87.3018 31.3262 87.3018 31.873C87.3018 32.7344 87.1172 33.5205 86.748 34.2314C86.3926 34.9287 85.9209 35.5234 85.333 36.0156C84.7451 36.5078 84.0752 36.8906 83.3232 37.1641C82.5713 37.4375 81.8057 37.5742 81.0264 37.5742C80.4521 37.5742 79.8369 37.5264 79.1807 37.4307C78.5244 37.335 77.8271 37.1777 77.0889 36.959C76.8564 36.8906 76.6514 36.8428 76.4736 36.8154C76.2959 36.7744 76.1318 36.7539 75.9814 36.7539C75.6807 36.7539 75.4346 36.9316 75.2432 37.2871H74.5664V30.5811H75.2432C75.4346 31.5381 75.7217 32.3789 76.1045 33.1035C76.4873 33.8281 76.9316 34.4297 77.4375 34.9082C77.957 35.3867 78.5244 35.749 79.1396 35.9951C79.7686 36.2412 80.4111 36.3643 81.0674 36.3643C81.5322 36.3643 81.9561 36.2891 82.3389 36.1387C82.7354 35.9883 83.0771 35.79 83.3643 35.5439C83.6514 35.2842 83.8701 34.9834 84.0205 34.6416C84.1846 34.2998 84.2666 33.9307 84.2666 33.5342C84.2666 33.0693 84.1982 32.6523 84.0615 32.2832C83.9248 31.9004 83.6719 31.5312 83.3027 31.1758C82.9336 30.8203 82.4277 30.4512 81.7852 30.0684C81.1426 29.6719 80.3154 29.2207 79.3037 28.7148C78.292 28.2227 77.4717 27.7646 76.8428 27.3408C76.2275 26.917 75.7422 26.4932 75.3867 26.0693C75.0312 25.6318 74.792 25.1807 74.6689 24.7158C74.5459 24.2373 74.4844 23.6973 74.4844 23.0957C74.4844 22.3301 74.6211 21.6191 74.8945 20.9629C75.1816 20.293 75.5781 19.7188 76.084 19.2402C76.5898 18.748 77.1914 18.3652 77.8887 18.0918C78.5859 17.8047 79.3516 17.6611 80.1855 17.6611C80.4453 17.6611 80.7803 17.7021 81.1904 17.7842C81.6006 17.8662 82.0107 17.9551 82.4209 18.0508C82.8447 18.1465 83.2275 18.2354 83.5693 18.3174C83.9111 18.3994 84.1436 18.4404 84.2666 18.4404C84.4854 18.4404 84.6562 18.3926 84.7793 18.2969C84.9023 18.2012 85.0459 17.9893 85.21 17.6611H85.8867ZM107.933 22.0908H120.853V14.1338C120.853 13.4775 120.839 12.9443 120.812 12.5342C120.784 12.124 120.729 11.7891 120.647 11.5293C120.579 11.2559 120.47 11.0439 120.319 10.8936C120.169 10.7295 119.971 10.5791 119.725 10.4424C119.123 10.1143 118.501 9.9502 117.858 9.9502H116.874V9.19141H128.789L128.769 9.9502H127.784C127.524 9.9502 127.251 9.97754 126.964 10.0322C126.677 10.0869 126.403 10.1758 126.144 10.2988C125.884 10.4219 125.651 10.5791 125.446 10.7705C125.255 10.9482 125.111 11.167 125.016 11.4268C124.865 11.8779 124.79 12.7803 124.79 14.1338V32.0781C124.79 32.7344 124.804 33.2676 124.831 33.6777C124.858 34.0879 124.906 34.4297 124.975 34.7031C125.057 34.9629 125.166 35.168 125.303 35.3184C125.453 35.4688 125.651 35.6123 125.897 35.749C126.485 36.0771 127.114 36.2412 127.784 36.2412H128.769V37H116.874V36.2412H117.858C118.979 36.2412 119.807 35.9062 120.34 35.2363C120.682 34.8125 120.853 33.7598 120.853 32.0781V23.6084H107.933V32.0781C107.933 32.7344 107.946 33.2676 107.974 33.6777C108.001 34.0879 108.049 34.4229 108.117 34.6826C108.199 34.9424 108.315 35.1543 108.466 35.3184C108.616 35.4688 108.814 35.6123 109.061 35.749C109.648 36.0771 110.271 36.2412 110.927 36.2412H111.932V37H100.017V36.2412H101.001C102.163 36.2412 102.997 35.9062 103.503 35.2363C103.831 34.8125 103.995 33.7598 103.995 32.0781V14.1338C103.995 13.4775 103.981 12.9443 103.954 12.5342C103.927 12.124 103.872 11.7891 103.79 11.5293C103.722 11.2559 103.612 11.0439 103.462 10.8936C103.325 10.7295 103.134 10.5791 102.888 10.4424C102.286 10.1143 101.657 9.9502 101.001 9.9502H100.017V9.19141H111.932V9.9502H110.927C110.653 9.9502 110.373 9.97754 110.086 10.0322C109.812 10.0869 109.546 10.1758 109.286 10.2988C109.04 10.4219 108.814 10.5791 108.609 10.7705C108.418 10.9482 108.274 11.167 108.179 11.4268C108.015 11.8643 107.933 12.7666 107.933 14.1338V22.0908ZM135.741 7.83789C136.028 7.83789 136.295 7.89258 136.541 8.00195C136.801 8.11133 137.02 8.26172 137.197 8.45312C137.389 8.63086 137.539 8.84961 137.648 9.10938C137.758 9.35547 137.812 9.62207 137.812 9.90918C137.812 10.1963 137.758 10.4697 137.648 10.7295C137.539 10.9756 137.389 11.1943 137.197 11.3857C137.02 11.5771 136.801 11.7275 136.541 11.8369C136.295 11.9463 136.028 12.001 135.741 12.001C135.454 12.001 135.181 11.9463 134.921 11.8369C134.675 11.7275 134.456 11.5771 134.265 11.3857C134.073 11.1943 133.923 10.9756 133.813 10.7295C133.704 10.4697 133.649 10.1963 133.649 9.90918C133.649 9.62207 133.704 9.35547 133.813 9.10938C133.923 8.84961 134.066 8.63086 134.244 8.45312C134.436 8.26172 134.661 8.11133 134.921 8.00195C135.181 7.89258 135.454 7.83789 135.741 7.83789ZM137.443 17.6611V32.7549C137.443 33.3564 137.464 33.8486 137.505 34.2314C137.546 34.6006 137.607 34.9014 137.689 35.1338C137.771 35.3662 137.874 35.5439 137.997 35.667C138.134 35.7764 138.284 35.8789 138.448 35.9746C138.804 36.166 139.419 36.2617 140.294 36.2617V37H131.168V36.2617C131.633 36.2617 132.009 36.2412 132.296 36.2002C132.597 36.1592 132.836 36.0908 133.014 35.9951C133.205 35.8994 133.349 35.7832 133.444 35.6465C133.554 35.4961 133.656 35.3184 133.752 35.1133C133.943 34.6895 134.039 33.9033 134.039 32.7549V25.5156C134.039 24.3262 134.019 23.3896 133.978 22.7061C133.937 22.0225 133.861 21.5098 133.752 21.168C133.656 20.8262 133.506 20.6143 133.301 20.5322C133.109 20.4365 132.863 20.3887 132.562 20.3887C132.18 20.3887 131.715 20.4912 131.168 20.6963L130.881 19.958L136.541 17.6611H137.443ZM147.677 30.1504C146.515 29.5762 145.626 28.7969 145.011 27.8125C144.409 26.8145 144.108 25.7002 144.108 24.4697C144.108 23.54 144.293 22.665 144.662 21.8447C145.031 21.0107 145.551 20.2861 146.221 19.6709C146.891 19.0557 147.677 18.5703 148.579 18.2148C149.495 17.8457 150.5 17.6611 151.594 17.6611C153.398 17.6611 154.95 18.0986 156.249 18.9736H160.228C160.528 18.9736 160.754 18.9805 160.904 18.9941C161.068 18.9941 161.185 19.0078 161.253 19.0352C161.335 19.0488 161.383 19.0693 161.396 19.0967C161.41 19.124 161.431 19.1582 161.458 19.1992C161.54 19.3223 161.581 19.541 161.581 19.8555C161.581 20.0605 161.574 20.2314 161.561 20.3682C161.561 20.4912 161.52 20.5869 161.438 20.6553C161.369 20.7236 161.239 20.7715 161.048 20.7988C160.87 20.8125 160.597 20.8193 160.228 20.8193H157.787C158.553 21.8174 158.936 23.0752 158.936 24.5928C158.936 25.4541 158.758 26.2744 158.402 27.0537C158.061 27.8193 157.568 28.4893 156.926 29.0635C156.283 29.6377 155.504 30.0957 154.588 30.4375C153.672 30.7793 152.653 30.9502 151.532 30.9502C150.616 30.9502 149.666 30.8135 148.682 30.54C148.066 31.0596 147.656 31.5176 147.451 31.9141C147.246 32.2969 147.144 32.625 147.144 32.8984C147.144 33.1035 147.185 33.2812 147.267 33.4316C147.349 33.582 147.54 33.7119 147.841 33.8213C148.155 33.917 148.613 33.999 149.215 34.0674C149.816 34.1221 150.637 34.1631 151.676 34.1904C153.084 34.2314 154.239 34.2725 155.142 34.3135C156.058 34.3545 156.728 34.4092 157.151 34.4775C157.78 34.5596 158.354 34.7236 158.874 34.9697C159.394 35.2158 159.831 35.5234 160.187 35.8926C160.556 36.2617 160.836 36.6855 161.027 37.1641C161.232 37.6426 161.335 38.1621 161.335 38.7227C161.335 40.2676 160.61 41.7168 159.161 43.0703C157.015 45.0664 154.232 46.0645 150.814 46.0645C149.871 46.0645 148.914 45.9619 147.943 45.7568C146.973 45.5518 146.091 45.2715 145.298 44.916C144.505 44.5742 143.855 44.1641 143.35 43.6855C142.844 43.207 142.591 42.6943 142.591 42.1475C142.591 41.9424 142.618 41.7305 142.673 41.5117C142.741 41.3066 142.837 41.0811 142.96 40.835C143.097 40.6025 143.268 40.3428 143.473 40.0557C143.691 39.7686 143.951 39.4336 144.252 39.0508C144.348 38.9277 145.045 38.1895 146.344 36.8359C145.633 36.4121 145.127 36.0361 144.826 35.708C144.539 35.3662 144.396 34.9834 144.396 34.5596C144.396 34.3135 144.43 34.0605 144.498 33.8008C144.566 33.5273 144.717 33.2197 144.949 32.8779C145.182 32.5361 145.51 32.1465 145.934 31.709C146.371 31.2715 146.952 30.752 147.677 30.1504ZM151.245 18.6455C150.753 18.6455 150.288 18.748 149.851 18.9531C149.413 19.1445 149.03 19.4453 148.702 19.8555C148.388 20.252 148.135 20.7646 147.943 21.3936C147.766 22.0088 147.677 22.7334 147.677 23.5674C147.677 24.4971 147.766 25.3516 147.943 26.1309C148.135 26.9102 148.408 27.5869 148.764 28.1611C149.119 28.7217 149.55 29.1592 150.056 29.4736C150.562 29.7881 151.136 29.9453 151.778 29.9453C152.298 29.9453 152.776 29.8496 153.214 29.6582C153.651 29.4668 154.027 29.1729 154.342 28.7764C154.656 28.3799 154.902 27.8809 155.08 27.2793C155.258 26.6641 155.347 25.9395 155.347 25.1055C155.347 24.1895 155.251 23.3418 155.06 22.5625C154.882 21.7695 154.615 21.0859 154.26 20.5117C153.918 19.9238 153.494 19.4658 152.988 19.1377C152.482 18.8096 151.901 18.6455 151.245 18.6455ZM147.472 37C146.173 38.4082 145.523 39.6113 145.523 40.6094C145.523 41.0605 145.708 41.4707 146.077 41.8398C146.46 42.209 146.973 42.5234 147.615 42.7832C148.258 43.043 149.01 43.2412 149.871 43.3779C150.746 43.5283 151.669 43.6035 152.64 43.6035C153.87 43.6035 154.937 43.4805 155.839 43.2344C156.755 42.9883 157.507 42.667 158.095 42.2705C158.683 41.8877 159.12 41.4502 159.407 40.958C159.694 40.4795 159.838 40.001 159.838 39.5225C159.838 39.167 159.763 38.8662 159.612 38.6201C159.462 38.374 159.188 38.1689 158.792 38.0049C158.409 37.8545 157.876 37.7314 157.192 37.6357C156.509 37.5537 155.634 37.499 154.567 37.4717C153.022 37.4307 151.662 37.3691 150.486 37.2871C149.311 37.2051 148.306 37.1094 147.472 37ZM169.169 7.83789V21.5781C169.606 21.1543 170.037 20.71 170.461 20.2451C170.898 19.7803 171.363 19.3564 171.855 18.9736C172.348 18.5908 172.881 18.2764 173.455 18.0303C174.043 17.7842 174.706 17.6611 175.444 17.6611C176.442 17.6611 177.256 17.8799 177.885 18.3174C178.514 18.7412 179.006 19.3154 179.361 20.04C179.717 20.751 179.956 21.5645 180.079 22.4805C180.216 23.3965 180.284 24.3398 180.284 25.3105V32.7549C180.284 33.3838 180.291 33.917 180.305 34.3545C180.332 34.7783 180.428 35.127 180.592 35.4004C180.77 35.6602 181.043 35.8584 181.412 35.9951C181.795 36.1318 182.349 36.2207 183.073 36.2617V37H173.845V36.2617H174.275C174.891 36.2617 175.369 36.207 175.711 36.0977C176.053 35.9883 176.312 35.8037 176.49 35.5439C176.668 35.2705 176.777 34.9082 176.818 34.457C176.859 34.0059 176.88 33.4385 176.88 32.7549V25.3105C176.88 24.7227 176.866 24.1279 176.839 23.5264C176.825 22.9111 176.729 22.3574 176.552 21.8652C176.374 21.3594 176.073 20.9492 175.649 20.6348C175.239 20.3066 174.645 20.1426 173.865 20.1426C173.523 20.1426 173.182 20.1836 172.84 20.2656C172.498 20.334 172.136 20.4707 171.753 20.6758C171.384 20.8672 170.987 21.1406 170.563 21.4961C170.14 21.8379 169.675 22.2822 169.169 22.8291V32.7549C169.169 33.4248 169.183 33.9512 169.21 34.334C169.237 34.7031 169.285 34.9902 169.354 35.1953C169.436 35.4004 169.538 35.5508 169.661 35.6465C169.798 35.7422 169.969 35.8447 170.174 35.9541C170.365 36.0635 170.632 36.1455 170.974 36.2002C171.315 36.2412 171.726 36.2617 172.204 36.2617V37H162.894V36.2617C163.413 36.2617 163.851 36.2344 164.206 36.1797C164.575 36.1113 164.876 35.9609 165.108 35.7285C165.341 35.4961 165.505 35.1475 165.601 34.6826C165.71 34.2041 165.765 33.5615 165.765 32.7549V15.7539C165.765 13.6348 165.71 12.3154 165.601 11.7959C165.505 11.3037 165.348 10.9688 165.129 10.791C164.924 10.6133 164.644 10.5244 164.288 10.5244C163.974 10.5244 163.509 10.6338 162.894 10.8525L162.606 10.1348L168.226 7.83789H169.169ZM191.112 7.83789V32.7549C191.112 33.3564 191.133 33.8486 191.174 34.2314C191.215 34.6006 191.276 34.9014 191.358 35.1338C191.44 35.3525 191.543 35.5234 191.666 35.6465C191.803 35.7695 191.967 35.8789 192.158 35.9746C192.486 36.166 193.149 36.2617 194.147 36.2617V37H184.939V36.2617C185.555 36.2617 186.04 36.2139 186.396 36.1182C186.765 36.0225 187.045 35.8447 187.236 35.585C187.441 35.3252 187.571 34.9697 187.626 34.5186C187.681 34.0674 187.708 33.4795 187.708 32.7549V15.6924C187.708 14.626 187.694 13.7715 187.667 13.1289C187.653 12.4727 187.619 12.0283 187.564 11.7959C187.455 11.3037 187.298 10.9688 187.093 10.791C186.888 10.6133 186.621 10.5244 186.293 10.5244C185.924 10.5244 185.473 10.6338 184.939 10.8525L184.591 10.1348L190.189 7.83789H191.112ZM201.12 7.83789C201.407 7.83789 201.674 7.89258 201.92 8.00195C202.18 8.11133 202.398 8.26172 202.576 8.45312C202.768 8.63086 202.918 8.84961 203.027 9.10938C203.137 9.35547 203.191 9.62207 203.191 9.90918C203.191 10.1963 203.137 10.4697 203.027 10.7295C202.918 10.9756 202.768 11.1943 202.576 11.3857C202.398 11.5771 202.18 11.7275 201.92 11.8369C201.674 11.9463 201.407 12.001 201.12 12.001C200.833 12.001 200.56 11.9463 200.3 11.8369C200.054 11.7275 199.835 11.5771 199.644 11.3857C199.452 11.1943 199.302 10.9756 199.192 10.7295C199.083 10.4697 199.028 10.1963 199.028 9.90918C199.028 9.62207 199.083 9.35547 199.192 9.10938C199.302 8.84961 199.445 8.63086 199.623 8.45312C199.814 8.26172 200.04 8.11133 200.3 8.00195C200.56 7.89258 200.833 7.83789 201.12 7.83789ZM202.822 17.6611V32.7549C202.822 33.3564 202.843 33.8486 202.884 34.2314C202.925 34.6006 202.986 34.9014 203.068 35.1338C203.15 35.3662 203.253 35.5439 203.376 35.667C203.513 35.7764 203.663 35.8789 203.827 35.9746C204.183 36.166 204.798 36.2617 205.673 36.2617V37H196.547V36.2617C197.012 36.2617 197.388 36.2412 197.675 36.2002C197.976 36.1592 198.215 36.0908 198.393 35.9951C198.584 35.8994 198.728 35.7832 198.823 35.6465C198.933 35.4961 199.035 35.3184 199.131 35.1133C199.322 34.6895 199.418 33.9033 199.418 32.7549V25.5156C199.418 24.3262 199.397 23.3896 199.356 22.7061C199.315 22.0225 199.24 21.5098 199.131 21.168C199.035 20.8262 198.885 20.6143 198.68 20.5322C198.488 20.4365 198.242 20.3887 197.941 20.3887C197.559 20.3887 197.094 20.4912 196.547 20.6963L196.26 19.958L201.92 17.6611H202.822ZM213.056 30.1504C211.894 29.5762 211.005 28.7969 210.39 27.8125C209.788 26.8145 209.487 25.7002 209.487 24.4697C209.487 23.54 209.672 22.665 210.041 21.8447C210.41 21.0107 210.93 20.2861 211.6 19.6709C212.27 19.0557 213.056 18.5703 213.958 18.2148C214.874 17.8457 215.879 17.6611 216.973 17.6611C218.777 17.6611 220.329 18.0986 221.628 18.9736H225.606C225.907 18.9736 226.133 18.9805 226.283 18.9941C226.447 18.9941 226.563 19.0078 226.632 19.0352C226.714 19.0488 226.762 19.0693 226.775 19.0967C226.789 19.124 226.81 19.1582 226.837 19.1992C226.919 19.3223 226.96 19.541 226.96 19.8555C226.96 20.0605 226.953 20.2314 226.939 20.3682C226.939 20.4912 226.898 20.5869 226.816 20.6553C226.748 20.7236 226.618 20.7715 226.427 20.7988C226.249 20.8125 225.976 20.8193 225.606 20.8193H223.166C223.932 21.8174 224.314 23.0752 224.314 24.5928C224.314 25.4541 224.137 26.2744 223.781 27.0537C223.439 27.8193 222.947 28.4893 222.305 29.0635C221.662 29.6377 220.883 30.0957 219.967 30.4375C219.051 30.7793 218.032 30.9502 216.911 30.9502C215.995 30.9502 215.045 30.8135 214.061 30.54C213.445 31.0596 213.035 31.5176 212.83 31.9141C212.625 32.2969 212.522 32.625 212.522 32.8984C212.522 33.1035 212.563 33.2812 212.646 33.4316C212.728 33.582 212.919 33.7119 213.22 33.8213C213.534 33.917 213.992 33.999 214.594 34.0674C215.195 34.1221 216.016 34.1631 217.055 34.1904C218.463 34.2314 219.618 34.2725 220.521 34.3135C221.437 34.3545 222.106 34.4092 222.53 34.4775C223.159 34.5596 223.733 34.7236 224.253 34.9697C224.772 35.2158 225.21 35.5234 225.565 35.8926C225.935 36.2617 226.215 36.6855 226.406 37.1641C226.611 37.6426 226.714 38.1621 226.714 38.7227C226.714 40.2676 225.989 41.7168 224.54 43.0703C222.394 45.0664 219.611 46.0645 216.193 46.0645C215.25 46.0645 214.293 45.9619 213.322 45.7568C212.352 45.5518 211.47 45.2715 210.677 44.916C209.884 44.5742 209.234 44.1641 208.729 43.6855C208.223 43.207 207.97 42.6943 207.97 42.1475C207.97 41.9424 207.997 41.7305 208.052 41.5117C208.12 41.3066 208.216 41.0811 208.339 40.835C208.476 40.6025 208.646 40.3428 208.852 40.0557C209.07 39.7686 209.33 39.4336 209.631 39.0508C209.727 38.9277 210.424 38.1895 211.723 36.8359C211.012 36.4121 210.506 36.0361 210.205 35.708C209.918 35.3662 209.774 34.9834 209.774 34.5596C209.774 34.3135 209.809 34.0605 209.877 33.8008C209.945 33.5273 210.096 33.2197 210.328 32.8779C210.561 32.5361 210.889 32.1465 211.312 31.709C211.75 31.2715 212.331 30.752 213.056 30.1504ZM216.624 18.6455C216.132 18.6455 215.667 18.748 215.229 18.9531C214.792 19.1445 214.409 19.4453 214.081 19.8555C213.767 20.252 213.514 20.7646 213.322 21.3936C213.145 22.0088 213.056 22.7334 213.056 23.5674C213.056 24.4971 213.145 25.3516 213.322 26.1309C213.514 26.9102 213.787 27.5869 214.143 28.1611C214.498 28.7217 214.929 29.1592 215.435 29.4736C215.94 29.7881 216.515 29.9453 217.157 29.9453C217.677 29.9453 218.155 29.8496 218.593 29.6582C219.03 29.4668 219.406 29.1729 219.721 28.7764C220.035 28.3799 220.281 27.8809 220.459 27.2793C220.637 26.6641 220.726 25.9395 220.726 25.1055C220.726 24.1895 220.63 23.3418 220.438 22.5625C220.261 21.7695 219.994 21.0859 219.639 20.5117C219.297 19.9238 218.873 19.4658 218.367 19.1377C217.861 18.8096 217.28 18.6455 216.624 18.6455ZM212.851 37C211.552 38.4082 210.902 39.6113 210.902 40.6094C210.902 41.0605 211.087 41.4707 211.456 41.8398C211.839 42.209 212.352 42.5234 212.994 42.7832C213.637 43.043 214.389 43.2412 215.25 43.3779C216.125 43.5283 217.048 43.6035 218.019 43.6035C219.249 43.6035 220.315 43.4805 221.218 43.2344C222.134 42.9883 222.886 42.667 223.474 42.2705C224.062 41.8877 224.499 41.4502 224.786 40.958C225.073 40.4795 225.217 40.001 225.217 39.5225C225.217 39.167 225.142 38.8662 224.991 38.6201C224.841 38.374 224.567 38.1689 224.171 38.0049C223.788 37.8545 223.255 37.7314 222.571 37.6357C221.888 37.5537 221.013 37.499 219.946 37.4717C218.401 37.4307 217.041 37.3691 215.865 37.2871C214.689 37.2051 213.685 37.1094 212.851 37ZM234.548 7.83789V21.5781C234.985 21.1543 235.416 20.71 235.84 20.2451C236.277 19.7803 236.742 19.3564 237.234 18.9736C237.727 18.5908 238.26 18.2764 238.834 18.0303C239.422 17.7842 240.085 17.6611 240.823 17.6611C241.821 17.6611 242.635 17.8799 243.264 18.3174C243.893 18.7412 244.385 19.3154 244.74 20.04C245.096 20.751 245.335 21.5645 245.458 22.4805C245.595 23.3965 245.663 24.3398 245.663 25.3105V32.7549C245.663 33.3838 245.67 33.917 245.684 34.3545C245.711 34.7783 245.807 35.127 245.971 35.4004C246.148 35.6602 246.422 35.8584 246.791 35.9951C247.174 36.1318 247.728 36.2207 248.452 36.2617V37H239.224V36.2617H239.654C240.27 36.2617 240.748 36.207 241.09 36.0977C241.432 35.9883 241.691 35.8037 241.869 35.5439C242.047 35.2705 242.156 34.9082 242.197 34.457C242.238 34.0059 242.259 33.4385 242.259 32.7549V25.3105C242.259 24.7227 242.245 24.1279 242.218 23.5264C242.204 22.9111 242.108 22.3574 241.931 21.8652C241.753 21.3594 241.452 20.9492 241.028 20.6348C240.618 20.3066 240.023 20.1426 239.244 20.1426C238.902 20.1426 238.561 20.1836 238.219 20.2656C237.877 20.334 237.515 20.4707 237.132 20.6758C236.763 20.8672 236.366 21.1406 235.942 21.4961C235.519 21.8379 235.054 22.2822 234.548 22.8291V32.7549C234.548 33.4248 234.562 33.9512 234.589 34.334C234.616 34.7031 234.664 34.9902 234.732 35.1953C234.814 35.4004 234.917 35.5508 235.04 35.6465C235.177 35.7422 235.348 35.8447 235.553 35.9541C235.744 36.0635 236.011 36.1455 236.353 36.2002C236.694 36.2412 237.104 36.2617 237.583 36.2617V37H228.272V36.2617C228.792 36.2617 229.229 36.2344 229.585 36.1797C229.954 36.1113 230.255 35.9609 230.487 35.7285C230.72 35.4961 230.884 35.1475 230.979 34.6826C231.089 34.2041 231.144 33.5615 231.144 32.7549V15.7539C231.144 13.6348 231.089 12.3154 230.979 11.7959C230.884 11.3037 230.727 10.9688 230.508 10.791C230.303 10.6133 230.022 10.5244 229.667 10.5244C229.353 10.5244 228.888 10.6338 228.272 10.8525L227.985 10.1348L233.604 7.83789H234.548ZM255.486 12.042V18.2148H259.875V19.6504H255.486V31.832C255.486 32.4473 255.534 32.96 255.63 33.3701C255.726 33.7666 255.855 34.0811 256.02 34.3135C256.184 34.5459 256.375 34.71 256.594 34.8057C256.826 34.8877 257.079 34.9287 257.353 34.9287C257.804 34.9287 258.241 34.792 258.665 34.5186C259.089 34.2314 259.417 33.8145 259.649 33.2676H260.449C260.203 33.9375 259.902 34.5254 259.547 35.0312C259.205 35.5371 258.829 35.9609 258.419 36.3027C258.009 36.6309 257.571 36.877 257.106 37.041C256.642 37.2188 256.177 37.3076 255.712 37.3076C255.397 37.3076 255.076 37.2598 254.748 37.1641C254.434 37.082 254.133 36.959 253.846 36.7949C253.572 36.6172 253.319 36.4053 253.087 36.1592C252.854 35.9131 252.67 35.626 252.533 35.2979C252.246 34.6416 252.103 33.6367 252.103 32.2832V19.6504H249.129V18.9736C249.881 18.6729 250.646 18.167 251.426 17.4561C252.219 16.7314 252.923 15.877 253.538 14.8926C253.688 14.6328 253.873 14.2705 254.092 13.8057C254.324 13.3271 254.577 12.7393 254.851 12.042H255.486ZM273.861 17.6611V24.0596H273.185C272.925 23.0479 272.631 22.2139 272.303 21.5576C271.975 20.8877 271.599 20.3545 271.175 19.958C270.765 19.5615 270.3 19.2812 269.78 19.1172C269.274 18.9531 268.707 18.8711 268.078 18.8711C267.6 18.8711 267.162 18.9463 266.766 19.0967C266.383 19.2334 266.048 19.418 265.761 19.6504C265.487 19.8691 265.269 20.1289 265.104 20.4297C264.954 20.7168 264.879 21.0107 264.879 21.3115C264.879 21.6943 264.934 22.0498 265.043 22.3779C265.152 22.7061 265.378 23.0479 265.72 23.4033C266.075 23.7451 266.574 24.1143 267.217 24.5107C267.873 24.9072 268.748 25.3721 269.842 25.9053C270.854 26.3975 271.701 26.8828 272.385 27.3613C273.082 27.8398 273.643 28.3184 274.066 28.7969C274.504 29.2754 274.812 29.7744 274.989 30.2939C275.181 30.7998 275.276 31.3262 275.276 31.873C275.276 32.7344 275.092 33.5205 274.723 34.2314C274.367 34.9287 273.896 35.5234 273.308 36.0156C272.72 36.5078 272.05 36.8906 271.298 37.1641C270.546 37.4375 269.78 37.5742 269.001 37.5742C268.427 37.5742 267.812 37.5264 267.155 37.4307C266.499 37.335 265.802 37.1777 265.063 36.959C264.831 36.8906 264.626 36.8428 264.448 36.8154C264.271 36.7744 264.106 36.7539 263.956 36.7539C263.655 36.7539 263.409 36.9316 263.218 37.2871H262.541V30.5811H263.218C263.409 31.5381 263.696 32.3789 264.079 33.1035C264.462 33.8281 264.906 34.4297 265.412 34.9082C265.932 35.3867 266.499 35.749 267.114 35.9951C267.743 36.2412 268.386 36.3643 269.042 36.3643C269.507 36.3643 269.931 36.2891 270.313 36.1387C270.71 35.9883 271.052 35.79 271.339 35.5439C271.626 35.2842 271.845 34.9834 271.995 34.6416C272.159 34.2998 272.241 33.9307 272.241 33.5342C272.241 33.0693 272.173 32.6523 272.036 32.2832C271.899 31.9004 271.646 31.5312 271.277 31.1758C270.908 30.8203 270.402 30.4512 269.76 30.0684C269.117 29.6719 268.29 29.2207 267.278 28.7148C266.267 28.2227 265.446 27.7646 264.817 27.3408C264.202 26.917 263.717 26.4932 263.361 26.0693C263.006 25.6318 262.767 25.1807 262.644 24.7158C262.521 24.2373 262.459 23.6973 262.459 23.0957C262.459 22.3301 262.596 21.6191 262.869 20.9629C263.156 20.293 263.553 19.7188 264.059 19.2402C264.564 18.748 265.166 18.3652 265.863 18.0918C266.561 17.8047 267.326 17.6611 268.16 17.6611C268.42 17.6611 268.755 17.7021 269.165 17.7842C269.575 17.8662 269.985 17.9551 270.396 18.0508C270.819 18.1465 271.202 18.2354 271.544 18.3174C271.886 18.3994 272.118 18.4404 272.241 18.4404C272.46 18.4404 272.631 18.3926 272.754 18.2969C272.877 18.2012 273.021 17.9893 273.185 17.6611H273.861Z" fill="black"/>
<path d="M3 57.5C1.61929 57.5 0.5 58.6193 0.5 60C0.5 61.3807 1.61929 62.5 3 62.5V57.5ZM137.667 60C137.667 67.3638 143.636 73.3333 151 73.3333C158.364 73.3333 164.333 67.3638 164.333 60C164.333 52.6362 158.364 46.6667 151 46.6667C143.636 46.6667 137.667 52.6362 137.667 60ZM3 62.5H151V57.5H3V62.5Z" fill="#25A942"/>
</svg>
